<svg width="32" height="33" viewBox="0 0 32 33" fill="none" xmlns="http://www.w3.org/2000/svg">
<g clip-path="url(#clip0_174_32)">
<path d="M24.6666 14.1734C24.6666 14.2329 24.6653 14.292 24.6626 14.3507C24.2863 14.0168 23.8004 13.8327 23.2973 13.8334C23.0813 13.8334 22.8711 13.8662 22.6666 13.932V8.16669C22.6666 7.90147 22.5613 7.64712 22.3737 7.45958C22.1862 7.27204 21.9318 7.16669 21.6666 7.16669H10.3333C10.0681 7.16669 9.81372 7.27204 9.62618 7.45958C9.43865 7.64712 9.33329 7.90147 9.33329 8.16669V14.1734C9.33329 14.7254 9.78129 15.1734 10.3333 15.1734H21.368L21.3546 15.2067L21.3506 15.2227L20.7506 17.068L20.7373 17.1027L20.712 17.1734H10.3333C9.53764 17.1734 8.77458 16.8573 8.21197 16.2947C7.64936 15.7321 7.33329 14.969 7.33329 14.1734V8.16669C7.33329 7.37104 7.64936 6.60798 8.21197 6.04537C8.77458 5.48276 9.53764 5.16669 10.3333 5.16669H15V4.16669C15 3.92484 15.0877 3.6912 15.2468 3.50905C15.4059 3.32691 15.6256 3.20859 15.8653 3.17602L16 3.16669C16.2418 3.16674 16.4754 3.25444 16.6576 3.41355C16.8397 3.57265 16.9581 3.79237 16.9906 4.03202L17 4.16669L16.9986 5.16669H21.6653C22.4609 5.16669 23.224 5.48276 23.7866 6.04537C24.3492 6.60798 24.6653 7.37104 24.6653 8.16669L24.6666 14.1734ZM17.3906 19.2147L17.54 19.1667H8.33862C7.54297 19.1667 6.77991 19.4828 6.2173 20.0454C5.65469 20.608 5.33862 21.371 5.33862 22.1667V23.376C5.33849 24.0961 5.4939 24.8077 5.79421 25.4622C6.09452 26.1166 6.53265 26.6985 7.07862 27.168C9.16262 28.9587 12.148 29.8347 16 29.8347C18.768 29.8347 21.0893 29.3827 22.9506 28.464C22.5968 28.3963 22.2668 28.2373 21.9934 28.0027C21.72 27.7681 21.5127 27.4661 21.392 27.1267L21.3866 27.1107L21.3466 26.9867C19.8986 27.5494 18.12 27.8347 16 27.8347C12.588 27.8347 10.06 27.0934 8.38262 25.6507C8.0551 25.3691 7.79227 25.02 7.61208 24.6274C7.4319 24.2348 7.33862 23.808 7.33862 23.376V22.1667C7.33862 21.9015 7.44398 21.6471 7.63152 21.4596C7.81905 21.272 8.07341 21.1667 8.33862 21.1667H16V21.1627C15.9993 20.7364 16.1312 20.3205 16.3775 19.9727C16.6239 19.6248 16.9723 19.3622 17.3746 19.2214L17.3906 19.2147ZM14.6653 10.8334C14.6716 10.6106 14.6332 10.3889 14.5523 10.1812C14.4714 9.97358 14.3497 9.78427 14.1943 9.62449C14.039 9.46471 13.8532 9.3377 13.648 9.25097C13.4427 9.16424 13.2221 9.11955 12.9993 9.11955C12.7765 9.11955 12.5559 9.16424 12.3506 9.25097C12.1453 9.3377 11.9596 9.46471 11.8042 9.62449C11.6489 9.78427 11.5272 9.97358 11.4463 10.1812C11.3654 10.3889 11.327 10.6106 11.3333 10.8334C11.3456 11.267 11.5265 11.6789 11.8376 11.9813C12.1487 12.2837 12.5654 12.4529 12.9993 12.4529C13.4332 12.4529 13.8499 12.2837 14.161 11.9813C14.4721 11.6789 14.653 11.267 14.6653 10.8334ZM18.9893 9.16669C19.212 9.16039 19.4338 9.19882 19.6414 9.27971C19.8491 9.3606 20.0384 9.4823 20.1982 9.63763C20.3579 9.79295 20.4849 9.97874 20.5717 10.184C20.6584 10.3893 20.7031 10.6098 20.7031 10.8327C20.7031 11.0555 20.6584 11.2761 20.5717 11.4814C20.4849 11.6866 20.3579 11.8724 20.1982 12.0277C20.0384 12.1831 19.8491 12.3048 19.6414 12.3857C19.4338 12.4666 19.212 12.505 18.9893 12.4987C18.5556 12.4864 18.1438 12.3055 17.8414 11.9944C17.5389 11.6833 17.3698 11.2666 17.3698 10.8327C17.3698 10.3988 17.5389 9.98206 17.8414 9.67096C18.1438 9.35986 18.5556 9.17896 18.9893 9.16669ZM21.452 23.716C20.9928 23.1223 20.367 22.6789 19.6546 22.4427L17.8186 21.8454C17.6776 21.7951 17.5555 21.7025 17.4692 21.5802C17.3829 21.4578 17.3365 21.3118 17.3365 21.162C17.3365 21.0123 17.3829 20.8662 17.4692 20.7439C17.5555 20.6215 17.6776 20.5289 17.8186 20.4787L19.6546 19.8814C20.1986 19.6938 20.6926 19.3847 21.0992 18.9776C21.5058 18.5706 21.8143 18.0762 22.0013 17.532L22.0146 17.4867L22.6133 15.6507C22.6632 15.5092 22.7558 15.3866 22.8783 15.2999C23.0008 15.2133 23.1472 15.1667 23.2973 15.1667C23.4474 15.1667 23.5937 15.2133 23.7162 15.2999C23.8388 15.3866 23.9314 15.5092 23.9813 15.6507L24.5786 17.4867C24.7648 18.0446 25.0784 18.5515 25.4945 18.9671C25.9106 19.3828 26.4178 19.6958 26.976 19.8814L28.8133 20.4787L28.8493 20.488C28.9903 20.5382 29.1124 20.6309 29.1987 20.7532C29.285 20.8756 29.3314 21.0216 29.3314 21.1714C29.3314 21.3211 29.285 21.4671 29.1987 21.5895C29.1124 21.7118 28.9903 21.8045 28.8493 21.8547L27.012 22.452C26.4538 22.6376 25.9466 22.9506 25.5305 23.3662C25.1144 23.7819 24.8008 24.2888 24.6146 24.8467L24.0186 26.6827C23.9678 26.8241 23.8747 26.9466 23.752 27.0334C23.6604 27.0981 23.5551 27.1407 23.4443 27.1579C23.3335 27.1751 23.2202 27.1663 23.1134 27.1323C23.0065 27.0983 22.909 27.0401 22.8285 26.962C22.748 26.884 22.6866 26.7884 22.6493 26.6827L22.052 24.8467C21.9185 24.4381 21.7156 24.0556 21.452 23.716ZM31.7106 28.784L30.6906 28.4534C30.3806 28.3501 30.0989 28.1761 29.8677 27.9451C29.6365 27.7142 29.4622 27.4326 29.3586 27.1227L29.0266 26.1027C28.999 26.0239 28.9476 25.9557 28.8795 25.9074C28.8115 25.8591 28.7301 25.8332 28.6466 25.8332C28.5632 25.8332 28.4818 25.8591 28.4137 25.9074C28.3456 25.9557 28.2942 26.0239 28.2666 26.1027L27.9346 27.1214C27.8333 27.4292 27.6624 27.7096 27.4351 27.9406C27.2077 28.1717 26.9302 28.3471 26.624 28.4534L25.6026 28.784C25.5239 28.8116 25.4556 28.863 25.4074 28.9311C25.3591 28.9992 25.3331 29.0806 25.3331 29.164C25.3331 29.2475 25.3591 29.3289 25.4074 29.3969C25.4556 29.465 25.5239 29.5164 25.6026 29.544L26.624 29.876C26.9345 29.9799 27.2166 30.1547 27.4479 30.3866C27.6791 30.6185 27.8531 30.9011 27.956 31.212L28.2866 32.2307C28.3148 32.3088 28.3665 32.3764 28.4345 32.4241C28.5025 32.4719 28.5835 32.4975 28.6666 32.4975C28.7497 32.4975 28.8308 32.4719 28.8988 32.4241C28.9668 32.3764 29.0184 32.3088 29.0466 32.2307L29.38 31.212C29.4833 30.902 29.6573 30.6203 29.8882 30.3891C30.1192 30.1579 30.4007 29.9836 30.7106 29.88L31.732 29.5494C31.8107 29.5217 31.8789 29.4704 31.9272 29.4023C31.9755 29.3342 32.0014 29.2528 32.0014 29.1694C32.0014 29.0859 31.9755 29.0045 31.9272 28.9364C31.8789 28.8684 31.8107 28.817 31.732 28.7894L31.7106 28.784Z" fill="#282828" fill-opacity="0.65"/>
</g>
<defs>
<clipPath id="clip0_174_32">
<rect width="32" height="32" fill="white" transform="translate(0 0.5)"/>
</clipPath>
</defs>
</svg>
