<svg width="27" height="30" viewBox="0 0 27 30" fill="none" xmlns="http://www.w3.org/2000/svg">
<path d="M19.6669 11.1734C19.6669 11.2329 19.6655 11.292 19.6629 11.3507C19.2865 11.0168 18.8007 10.8327 18.2975 10.8334C18.0815 10.8334 17.8713 10.8662 17.6669 10.932V5.16669C17.6669 4.90147 17.5615 4.64712 17.374 4.45958C17.1864 4.27204 16.9321 4.16669 16.6669 4.16669H5.33353C5.06832 4.16669 4.81396 4.27204 4.62643 4.45958C4.43889 4.64712 4.33353 4.90147 4.33353 5.16669V11.1734C4.33353 11.7254 4.78153 12.1734 5.33353 12.1734H16.3682L16.3549 12.2067L16.3509 12.2227L15.7509 14.068L15.7375 14.1027L15.7122 14.1734H5.33353C4.53788 14.1734 3.77482 13.8573 3.21221 13.2947C2.6496 12.7321 2.33353 11.969 2.33353 11.1734V5.16669C2.33353 4.37104 2.6496 3.60798 3.21221 3.04537C3.77482 2.48276 4.53788 2.16669 5.33353 2.16669H10.0002V1.16669C10.0003 0.924837 10.088 0.691201 10.2471 0.509053C10.4062 0.326905 10.6259 0.208589 10.8655 0.17602L11.0002 0.166687C11.2421 0.166741 11.4757 0.254442 11.6578 0.413545C11.84 0.572649 11.9583 0.792373 11.9909 1.03202L12.0002 1.16669L11.9989 2.16669H16.6655C17.4612 2.16669 18.2242 2.48276 18.7869 3.04537C19.3495 3.60798 19.6655 4.37104 19.6655 5.16669L19.6669 11.1734ZM12.3909 16.2147L12.5402 16.1667H3.33887C2.54322 16.1667 1.78016 16.4828 1.21755 17.0454C0.654937 17.608 0.338867 18.371 0.338867 19.1667V20.376C0.338737 21.0961 0.494141 21.8077 0.794451 22.4622C1.09476 23.1166 1.53289 23.6985 2.07887 24.168C4.16287 25.9587 7.1482 26.8347 11.0002 26.8347C13.7682 26.8347 16.0895 26.3827 17.9509 25.464C17.597 25.3963 17.2671 25.2373 16.9937 25.0027C16.7202 24.7681 16.5129 24.4661 16.3922 24.1267L16.3869 24.1107L16.3469 23.9867C14.8989 24.5494 13.1202 24.8347 11.0002 24.8347C7.5882 24.8347 5.0602 24.0934 3.38287 22.6507C3.05535 22.3691 2.79251 22.02 2.61233 21.6274C2.43215 21.2348 2.33887 20.808 2.33887 20.376V19.1667C2.33887 18.9015 2.44422 18.6471 2.63176 18.4596C2.8193 18.272 3.07365 18.1667 3.33887 18.1667H11.0002V18.1627C10.9995 17.7364 11.1315 17.3205 11.3778 16.9727C11.6241 16.6248 11.9726 16.3622 12.3749 16.2214L12.3909 16.2147ZM9.66553 7.83335C9.67183 7.61061 9.63341 7.38886 9.55252 7.18122C9.47163 6.97358 9.34992 6.78427 9.19459 6.62449C9.03927 6.46471 8.85348 6.3377 8.64821 6.25097C8.44294 6.16424 8.22237 6.11955 7.99953 6.11955C7.7767 6.11955 7.55612 6.16424 7.35086 6.25097C7.14559 6.3377 6.9598 6.46471 6.80447 6.62449C6.64915 6.78427 6.52744 6.97358 6.44655 7.18122C6.36566 7.38886 6.32723 7.61061 6.33353 7.83335C6.3458 8.26705 6.52671 8.67886 6.83781 8.98128C7.1489 9.2837 7.56567 9.45288 7.99953 9.45288C8.4334 9.45288 8.85016 9.2837 9.16126 8.98128C9.47236 8.67886 9.65326 8.26705 9.66553 7.83335ZM13.9895 6.16669C14.2123 6.16039 14.434 6.19882 14.6417 6.27971C14.8493 6.3606 15.0386 6.4823 15.1984 6.63763C15.3582 6.79295 15.4852 6.97874 15.5719 7.18401C15.6586 7.38928 15.7033 7.60985 15.7033 7.83269C15.7033 8.05552 15.6586 8.2761 15.5719 8.48137C15.4852 8.68663 15.3582 8.87242 15.1984 9.02775C15.0386 9.18307 14.8493 9.30478 14.6417 9.38567C14.434 9.46656 14.2123 9.50499 13.9895 9.49869C13.5558 9.48642 13.144 9.30551 12.8416 8.99441C12.5392 8.68332 12.37 8.26655 12.37 7.83269C12.37 7.39882 12.5392 6.98206 12.8416 6.67096C13.144 6.35986 13.5558 6.17896 13.9895 6.16669ZM16.4522 20.716C15.9931 20.1223 15.3673 19.6789 14.6549 19.4427L12.8189 18.8454C12.6778 18.7951 12.5557 18.7025 12.4694 18.5802C12.3831 18.4578 12.3368 18.3118 12.3368 18.162C12.3368 18.0123 12.3831 17.8662 12.4694 17.7439C12.5557 17.6215 12.6778 17.5289 12.8189 17.4787L14.6549 16.8814C15.1988 16.6938 15.6928 16.3847 16.0995 15.9776C16.5061 15.5706 16.8146 15.0762 17.0015 14.532L17.0149 14.4867L17.6135 12.6507C17.6635 12.5092 17.7561 12.3866 17.8786 12.2999C18.0011 12.2133 18.1475 12.1667 18.2975 12.1667C18.4476 12.1667 18.594 12.2133 18.7165 12.2999C18.839 12.3866 18.9316 12.5092 18.9815 12.6507L19.5789 14.4867C19.765 15.0446 20.0786 15.5515 20.4947 15.9671C20.9109 16.3828 21.4181 16.6958 21.9762 16.8814L23.8135 17.4787L23.8495 17.488C23.9906 17.5382 24.1127 17.6309 24.199 17.7532C24.2853 17.8756 24.3316 18.0216 24.3316 18.1714C24.3316 18.3211 24.2853 18.4671 24.199 18.5895C24.1127 18.7118 23.9906 18.8045 23.8495 18.8547L22.0122 19.452C21.4541 19.6376 20.9469 19.9506 20.5307 20.3662C20.1146 20.7819 19.801 21.2888 19.6149 21.8467L19.0189 23.6827C18.968 23.8241 18.8749 23.9466 18.7522 24.0334C18.6607 24.0981 18.5553 24.1407 18.4445 24.1579C18.3337 24.1751 18.2205 24.1663 18.1136 24.1323C18.0068 24.0983 17.9093 24.0401 17.8287 23.962C17.7482 23.884 17.6869 23.7884 17.6495 23.6827L17.0522 21.8467C16.9188 21.4381 16.7158 21.0556 16.4522 20.716ZM26.7109 25.784L25.6909 25.4534C25.3809 25.3501 25.0991 25.1761 24.8679 24.9451C24.6368 24.7142 24.4625 24.4326 24.3589 24.1227L24.0269 23.1027C23.9993 23.0239 23.9479 22.9557 23.8798 22.9074C23.8117 22.8591 23.7303 22.8332 23.6469 22.8332C23.5634 22.8332 23.482 22.8591 23.4139 22.9074C23.3459 22.9557 23.2945 23.0239 23.2669 23.1027L22.9349 24.1214C22.8336 24.4292 22.6626 24.7096 22.4353 24.9406C22.208 25.1717 21.9304 25.3471 21.6242 25.4534L20.6029 25.784C20.5241 25.8116 20.4559 25.863 20.4076 25.9311C20.3593 25.9992 20.3334 26.0806 20.3334 26.164C20.3334 26.2475 20.3593 26.3289 20.4076 26.3969C20.4559 26.465 20.5241 26.5164 20.6029 26.544L21.6242 26.876C21.9348 26.9799 22.2169 27.1547 22.4481 27.3866C22.6793 27.6185 22.8533 27.9011 22.9562 28.212L23.2869 29.2307C23.3151 29.3088 23.3667 29.3764 23.4347 29.4241C23.5027 29.4719 23.5838 29.4975 23.6669 29.4975C23.75 29.4975 23.831 29.4719 23.899 29.4241C23.967 29.3764 24.0187 29.3088 24.0469 29.2307L24.3802 28.212C24.4835 27.902 24.6575 27.6203 24.8884 27.3891C25.1194 27.1579 25.401 26.9836 25.7109 26.88L26.7322 26.5494C26.811 26.5217 26.8792 26.4704 26.9275 26.4023C26.9757 26.3342 27.0017 26.2528 27.0017 26.1694C27.0017 26.0859 26.9757 26.0045 26.9275 25.9364C26.8792 25.8684 26.811 25.817 26.7322 25.7894L26.7109 25.784Z" fill="#86C364"/>
</svg>
