<svg width="20" height="26" viewBox="0 0 20 26" fill="none" xmlns="http://www.w3.org/2000/svg">
<g clip-path="url(#clip0_157_143)">
<path d="M19.6136 18.1899C18.7513 17.1763 17.1378 15.6514 17.1378 10.6562C17.1378 6.8623 14.7063 3.8252 11.4275 3.08008V2.0625C11.4275 1.19971 10.7884 0.5 10.0002 0.5C9.21197 0.5 8.57283 1.19971 8.57283 2.0625V3.08008C5.29412 3.8252 2.86253 6.8623 2.86253 10.6562C2.86253 15.6514 1.24906 17.1763 0.386759 18.1899C0.118963 18.5049 0.000240632 18.8813 0.00247226 19.25C0.00738186 20.0508 0.581804 20.8125 1.43518 20.8125H18.5652C19.4186 20.8125 19.9934 20.0508 19.9979 19.25C20.0001 18.8813 19.8814 18.5044 19.6136 18.1899ZM3.01652 18.4688C3.96362 17.103 4.9991 14.8394 5.00401 10.6846C5.00401 10.6748 5.00133 10.666 5.00133 10.6562C5.00133 7.63574 7.23921 5.1875 10.0002 5.1875C12.7612 5.1875 14.999 7.63574 14.999 10.6562C14.999 10.666 14.9964 10.6748 14.9964 10.6846C15.0013 14.8398 16.0368 17.1035 16.9839 18.4688H3.01652ZM10.0002 25.5C11.5766 25.5 12.8553 24.1011 12.8553 22.375H7.14504C7.14504 24.1011 8.42376 25.5 10.0002 25.5Z" fill="#282828"/>
</g>
<defs>
<clipPath id="clip0_157_143">
<rect width="20" height="25" fill="white" transform="translate(0 0.5)"/>
</clipPath>
</defs>
</svg>
