<svg width="22" height="22" viewBox="0 0 22 22" fill="none" xmlns="http://www.w3.org/2000/svg">
<path d="M4.78505 7.53501C4.6563 7.66392 4.58398 7.83866 4.58398 8.02084C4.58398 8.20303 4.6563 8.37777 4.78505 8.50668L10.5142 14.2358C10.6431 14.3646 10.8179 14.4369 11 14.4369C11.1822 14.4369 11.357 14.3646 11.4859 14.2358L17.215 8.50668C17.2788 8.44288 17.3295 8.36713 17.364 8.28377C17.3985 8.20041 17.4163 8.11107 17.4163 8.02084C17.4163 7.93062 17.3985 7.84127 17.364 7.75791C17.3295 7.67455 17.2788 7.59881 17.215 7.53501C17.1512 7.47121 17.0755 7.4206 16.9921 7.38607C16.9088 7.35154 16.8194 7.33377 16.7292 7.33377C16.639 7.33377 16.5496 7.35154 16.4663 7.38607C16.3829 7.4206 16.3072 7.47121 16.2434 7.53501L11 12.7774L5.75671 7.53501C5.62781 7.40626 5.45307 7.33395 5.27088 7.33395C5.08869 7.33395 4.91395 7.40626 4.78505 7.53501Z" fill="#0F1811"/>
</svg>
