<svg width="26" height="26" viewBox="0 0 26 26" fill="none" xmlns="http://www.w3.org/2000/svg">
<path d="M9.39453 15.524C9.39453 16.9215 10.467 18.0482 11.7995 18.0482H14.5187C15.6779 18.0482 16.6204 17.0623 16.6204 15.849C16.6204 14.5273 16.0462 14.0615 15.1904 13.7582L10.8245 12.2415C9.9687 11.9382 9.39453 11.4723 9.39453 10.1507C9.39453 8.93733 10.337 7.95149 11.4962 7.95149H14.2154C15.5479 7.95149 16.6204 9.07816 16.6204 10.4757" stroke="#01DC82" stroke-width="1.5" stroke-linecap="round" stroke-linejoin="round"/>
<path d="M13 6.5V19.5" stroke="#01DC82" stroke-width="1.5" stroke-linecap="round" stroke-linejoin="round"/>
<path d="M13 23.8333C18.9831 23.8333 23.8333 18.9831 23.8333 13C23.8333 7.01692 18.9831 2.16667 13 2.16667C7.01692 2.16667 2.16667 7.01692 2.16667 13C2.16667 18.9831 7.01692 23.8333 13 23.8333Z" stroke="#01DC82" stroke-width="1.5" stroke-linecap="round" stroke-linejoin="round"/>
</svg>
