<svg width="41" height="41" viewBox="0 0 41 41" fill="none" xmlns="http://www.w3.org/2000/svg">
<g id="fluent:earth-leaf-16-filled" clip-path="url(#clip0_214_610)">
<path id="Vector" d="M3.00006 20.6363C2.98784 16.1324 4.71306 11.7973 7.81659 8.53341C10.9201 5.26949 15.1629 3.32822 19.6617 3.11369C24.1604 2.89915 28.5687 4.42788 31.9687 7.38167C35.3687 10.3354 37.4986 14.4867 37.9151 18.9713C37.4104 18.8341 36.9028 18.7082 36.3926 18.5938C33.694 17.9742 30.9079 17.8312 28.1601 18.1713C27.0684 18.308 26.0359 18.523 25.0626 18.8163C24.9336 18.5355 24.7994 18.2571 24.6601 17.9813C24.4872 17.6422 24.323 17.2987 24.1676 16.9513C23.9476 16.4513 23.7076 15.8013 23.7501 15.1113C23.8001 14.3113 24.2051 13.6613 24.8576 13.1713C25.6501 12.5763 26.6476 11.2138 27.5076 9.83631C27.9226 9.17881 28.2751 8.56131 28.5251 8.11131L28.5826 8.00631C26.1698 6.45755 23.3621 5.63649 20.4951 5.64131H20.3751C20.6026 6.09131 20.8526 6.62881 21.0776 7.22631C21.6876 8.84131 22.2376 11.2063 21.2551 13.2963C20.3526 15.2213 18.7951 15.7213 17.6301 16.0213L17.4626 16.0638C16.3301 16.3563 15.8626 16.4763 15.5226 16.9888C15.2076 17.4688 15.2651 18.0713 15.6226 19.2388L15.7051 19.5013C15.8476 19.9563 16.0176 20.4963 16.1051 21.0063C16.2151 21.6413 16.2451 22.4363 15.8451 23.2063C15.5056 23.8952 14.9628 24.4633 14.2901 24.8338C13.7698 25.1 13.2088 25.2774 12.6301 25.3588L12.4601 25.3888C11.5651 25.5463 11.1101 25.6263 10.6726 26.0938C10.3301 26.4613 10.1176 27.0988 9.99506 28.0238C9.94673 28.3988 9.90923 28.7788 9.88256 29.1638L9.86506 29.3688C9.83717 29.8138 9.77954 30.2565 9.69256 30.6938L9.63006 30.9688C11.1763 32.5979 13.0687 33.8589 15.1676 34.6588C14.6976 35.3588 14.2609 36.0821 13.8576 36.8288C10.6458 35.5111 7.89851 33.2679 5.96513 30.3845C4.03175 27.5011 2.99964 24.1079 3.00006 20.6363ZM40.3126 22.4863C40.2009 22.3048 40.0446 22.1548 39.8587 22.0507C39.6727 21.9465 39.4632 21.8917 39.2501 21.8913H39.2301L39.1651 21.8838L38.9376 21.8388C38.6868 21.7802 38.4375 21.7152 38.1901 21.6438L37.9526 21.5788C37.2571 21.3769 36.556 21.1951 35.8501 21.0338C33.4313 20.4763 30.9335 20.3468 28.4701 20.6513C25.4651 21.0263 23.1676 22.0463 21.6001 23.5063C20.0251 24.9788 19.2501 26.8488 19.2501 28.7563C19.2517 29.2146 19.2834 29.648 19.3451 30.0563C21.9701 27.7663 25.2076 25.9138 28.7851 24.4813C28.9376 24.4202 29.1006 24.3898 29.2649 24.3918C29.4291 24.3937 29.5914 24.428 29.7424 24.4926C29.8934 24.5573 30.0302 24.651 30.145 24.7686C30.2597 24.8861 30.3503 25.0251 30.4113 25.1776C30.4724 25.3301 30.5028 25.4931 30.5009 25.6573C30.4989 25.8216 30.4647 25.9839 30.4 26.1349C30.3353 26.2859 30.2416 26.4227 30.1241 26.5375C30.0065 26.6522 29.8676 26.7427 29.7151 26.8038C27.7226 27.6013 25.8801 28.5213 24.2201 29.5588C20.0901 31.9688 17.5176 35.0638 15.6326 38.8338C15.5531 38.9812 15.5041 39.143 15.4883 39.3096C15.4726 39.4763 15.4905 39.6444 15.541 39.804C15.5914 39.9636 15.6735 40.1115 15.7822 40.2388C15.8909 40.3661 16.024 40.4703 16.1738 40.5451C16.3235 40.62 16.4867 40.664 16.6538 40.6746C16.8209 40.6852 16.9884 40.6621 17.1464 40.6067C17.3043 40.5513 17.4496 40.4648 17.5735 40.3522C17.6973 40.2396 17.7974 40.1033 17.8676 39.9513C18.8276 38.0363 19.9751 36.3138 21.4876 34.7813C21.5376 34.8763 21.5959 34.9796 21.6626 35.0913C21.9376 35.5563 22.3626 36.1788 22.9426 36.8063C24.1051 38.0563 25.9776 39.3913 28.6251 39.3913C30.2551 39.3913 31.6101 38.9763 32.7201 38.2513C33.8201 37.5363 34.6151 36.5638 35.2101 35.5438C36.1301 33.9688 36.6576 32.0938 37.0476 30.7038C37.1459 30.3521 37.2367 30.038 37.3201 29.7613C37.7526 28.3513 38.3851 27.0863 38.9701 26.0513C39.2684 25.5346 39.5392 25.0838 39.7826 24.6988L39.8226 24.6338C40.0176 24.331 40.1994 24.0198 40.3676 23.7013C40.4626 23.5109 40.5074 23.2993 40.4978 23.0867C40.4882 22.874 40.4244 22.6674 40.3126 22.4863Z" fill="#282828"/>
</g>
<defs>
<clipPath id="clip0_214_610">
<rect width="40" height="40" fill="white" transform="translate(0.5 0.641296)"/>
</clipPath>
</defs>
</svg>
