<svg width="23" height="24" viewBox="0 0 23 24" fill="none" xmlns="http://www.w3.org/2000/svg">
<g id="mdi:facial-recognition" clip-path="url(#clip0_54_2)">
<path id="Vector" d="M8.625 12.0856C8.30729 12.0856 8.0026 12.2118 7.77795 12.4365C7.55329 12.6611 7.42708 12.9658 7.42708 13.2835C7.42708 13.6012 7.55329 13.9059 7.77795 14.1306C8.0026 14.3552 8.30729 14.4814 8.625 14.4814C8.78231 14.4814 8.93808 14.4505 9.08342 14.3903C9.22876 14.3301 9.36082 14.2418 9.47205 14.1306C9.58329 14.0193 9.67153 13.8873 9.73173 13.742C9.79193 13.5966 9.82292 13.4408 9.82292 13.2835C9.82292 13.1262 9.79193 12.9704 9.73173 12.8251C9.67153 12.6798 9.58329 12.5477 9.47205 12.4365C9.36082 12.3252 9.22876 12.237 9.08342 12.1768C8.93808 12.1166 8.78231 12.0856 8.625 12.0856ZM14.375 12.0856C14.0573 12.0856 13.7526 12.2118 13.5279 12.4365C13.3033 12.6611 13.1771 12.9658 13.1771 13.2835C13.1771 13.6012 13.3033 13.9059 13.5279 14.1306C13.7526 14.3552 14.0573 14.4814 14.375 14.4814C14.6927 14.4814 14.9974 14.3552 15.2221 14.1306C15.4467 13.9059 15.5729 13.6012 15.5729 13.2835C15.5729 12.9658 15.4467 12.6611 15.2221 12.4365C14.9974 12.2118 14.6927 12.0856 14.375 12.0856ZM11.5 2.74186C10.2415 2.74186 8.99532 2.98974 7.83262 3.47135C6.66991 3.95296 5.61345 4.65886 4.72356 5.54876C2.92634 7.34598 1.91667 9.78354 1.91667 12.3252C1.91667 14.8669 2.92634 17.3044 4.72356 19.1016C5.61345 19.9915 6.66991 20.6974 7.83262 21.179C8.99532 21.6606 10.2415 21.9085 11.5 21.9085C14.0417 21.9085 16.4792 20.8989 18.2764 19.1016C20.0737 17.3044 21.0833 14.8669 21.0833 12.3252C21.0833 11.0667 20.8355 9.82052 20.3538 8.65781C19.8722 7.49511 19.1663 6.43865 18.2764 5.54876C17.3865 4.65886 16.3301 3.95296 15.1674 3.47135C14.0047 2.98974 12.7585 2.74186 11.5 2.74186ZM11.5 19.9919C9.46667 19.9919 7.51663 19.1841 6.07885 17.7463C4.64107 16.3086 3.83333 14.3585 3.83333 12.3252C3.80371 12.0513 3.80371 11.775 3.83333 11.501C6.11603 10.5022 7.92283 8.65766 8.87417 6.35478C9.75793 7.60713 10.9295 8.62897 12.2903 9.33439C13.6511 10.0398 15.1614 10.4082 16.6942 10.4085C17.4225 10.4085 18.1413 10.3223 18.8504 10.1594C20.0483 14.2419 17.7292 18.4873 13.6658 19.6756C12.9375 19.8864 12.2283 19.9919 11.5 19.9919ZM0 2.74186C0 2.23353 0.201934 1.74602 0.561379 1.38657C0.920823 1.02713 1.40833 0.825195 1.91667 0.825195L5.75 0.825195V2.74186H1.91667V6.5752H0V2.74186ZM23 21.9085C23 22.4169 22.7981 22.9044 22.4386 23.2638C22.0792 23.6233 21.5917 23.8252 21.0833 23.8252H17.25V21.9085H21.0833V18.0752H23V21.9085ZM1.91667 23.8252C1.40833 23.8252 0.920823 23.6233 0.561379 23.2638C0.201934 22.9044 0 22.4169 0 21.9085V18.0752H1.91667V21.9085H5.75V23.8252H1.91667ZM21.0833 0.825195C21.5917 0.825195 22.0792 1.02713 22.4386 1.38657C22.7981 1.74602 23 2.23353 23 2.74186V6.5752H21.0833V2.74186H17.25V0.825195H21.0833Z" fill="#282828"/>
</g>
<defs>
<clipPath id="clip0_54_2">
<rect width="23" height="23" fill="white" transform="translate(0 0.825195)"/>
</clipPath>
</defs>
</svg>
