<svg width="26" height="26" viewBox="0 0 26 26" fill="none" xmlns="http://www.w3.org/2000/svg">
<path d="M3.79168 22.2083C4.69085 23.1075 6.14252 23.1075 7.04168 22.2083L21.125 8.125C22.0242 7.22583 22.0242 5.77416 21.125 4.875C20.2258 3.97583 18.7742 3.97583 17.875 4.875L3.79168 18.9583C2.89252 19.8575 2.89252 21.3092 3.79168 22.2083Z" stroke="#01DC82" stroke-width="1.5" stroke-linecap="round" stroke-linejoin="round"/>
<path d="M19.5109 9.73917L16.2609 6.48917" stroke="#01DC82" stroke-width="1.5" stroke-linecap="round" stroke-linejoin="round"/>
<path d="M9.20831 2.64334L10.8333 2.16667L10.3566 3.79167L10.8333 5.41667L9.20831 4.94L7.58331 5.41667L8.05998 3.79167L7.58331 2.16667L9.20831 2.64334Z" stroke="#01DC82" stroke-linecap="round" stroke-linejoin="round"/>
<path d="M4.875 9.14334L6.5 8.66667L6.02333 10.2917L6.5 11.9167L4.875 11.44L3.25 11.9167L3.72667 10.2917L3.25 8.66667L4.875 9.14334Z" stroke="#0C0507" stroke-linecap="round" stroke-linejoin="round"/>
<path d="M21.125 14.56L22.75 14.0833L22.2733 15.7083L22.75 17.3333L21.125 16.8567L19.5 17.3333L19.9767 15.7083L19.5 14.0833L21.125 14.56Z" stroke="#0C0507" stroke-linecap="round" stroke-linejoin="round"/>
</svg>
