<svg width="28" height="29" viewBox="0 0 28 29" fill="none" xmlns="http://www.w3.org/2000/svg">
<path d="M14.0001 10C13.4091 10 12.824 10.1164 12.278 10.3425C11.7321 10.5687 11.236 10.9002 10.8181 11.318C10.4002 11.7359 10.0688 12.232 9.84263 12.7779C9.61649 13.3239 9.50009 13.9091 9.50009 14.5C9.50009 15.0909 9.61649 15.6761 9.84263 16.2221C10.0688 16.768 10.4002 17.2641 10.8181 17.682C11.236 18.0998 11.7321 18.4313 12.278 18.6575C12.824 18.8836 13.4091 19 14.0001 19C15.1936 19 16.3382 18.5259 17.1821 17.682C18.026 16.8381 18.5001 15.6935 18.5001 14.5C18.5001 13.3065 18.026 12.1619 17.1821 11.318C16.3382 10.4741 15.1936 10 14.0001 10ZM11.0001 14.5C11.0001 14.106 11.0777 13.7159 11.2285 13.3519C11.3792 12.988 11.6002 12.6573 11.8788 12.3787C12.1573 12.1001 12.4881 11.8791 12.852 11.7284C13.216 11.5776 13.6061 11.5 14.0001 11.5C14.3941 11.5 14.7842 11.5776 15.1481 11.7284C15.5121 11.8791 15.8428 12.1001 16.1214 12.3787C16.4 12.6573 16.621 12.988 16.7717 13.3519C16.9225 13.7159 17.0001 14.106 17.0001 14.5C17.0001 15.2956 16.684 16.0587 16.1214 16.6213C15.5588 17.1839 14.7957 17.5 14.0001 17.5C13.2044 17.5 12.4414 17.1839 11.8788 16.6213C11.3162 16.0587 11.0001 15.2956 11.0001 14.5ZM21.7101 22.895L19.9821 22.136C19.7362 22.0291 19.4686 21.9813 19.2009 21.9962C18.9332 22.0111 18.6726 22.0885 18.4401 22.222C17.9731 22.492 17.6751 22.969 17.6161 23.506L17.4081 25.386C17.3876 25.5751 17.3089 25.7531 17.183 25.8957C17.0571 26.0382 16.8902 26.1383 16.7051 26.182C14.9259 26.605 13.0723 26.605 11.2931 26.182C11.1082 26.1381 10.9414 26.038 10.8157 25.8954C10.69 25.7529 10.6116 25.5749 10.5911 25.386L10.3831 23.509C10.3533 23.2448 10.262 22.9913 10.1164 22.7688C9.97089 22.5464 9.77521 22.3611 9.54509 22.228C9.3151 22.0955 9.05729 22.0188 8.7923 22.0038C8.52731 21.9889 8.26251 22.0362 8.01909 22.142L6.29109 22.901C6.11641 22.9777 5.92219 22.9983 5.73532 22.9598C5.54845 22.9212 5.37819 22.8256 5.24809 22.686C4.00536 21.3524 3.07999 19.7554 2.54109 18.014C2.48394 17.831 2.48541 17.6346 2.54529 17.4525C2.60518 17.2703 2.72048 17.1114 2.87509 16.998L4.40209 15.87C4.61706 15.7121 4.79185 15.5058 4.91232 15.2678C5.03279 15.0298 5.09556 14.7668 5.09556 14.5C5.09556 14.2332 5.03279 13.9702 4.91232 13.7322C4.79185 13.4942 4.61706 13.2879 4.40209 13.13L2.87509 12.005C2.72028 11.8915 2.60485 11.7324 2.54495 11.5501C2.48506 11.3677 2.48371 11.1712 2.54109 10.988C3.07999 9.24769 4.00617 7.65208 5.25009 6.321C5.3803 6.1816 5.55063 6.08613 5.73749 6.04779C5.92435 6.00945 6.11851 6.03014 6.29309 6.107L8.01309 6.864C8.25782 6.96933 8.52382 7.01591 8.78978 7.00001C9.05574 6.98411 9.31429 6.90618 9.54473 6.77244C9.77517 6.6387 9.97111 6.45288 10.1169 6.22984C10.2626 6.00681 10.3541 5.75275 10.3841 5.488L10.5941 3.61C10.6148 3.4188 10.6949 3.23889 10.8232 3.09557C10.9514 2.95226 11.1214 2.85274 11.3091 2.811C12.1891 2.615 13.0904 2.51133 14.0131 2.5C14.9151 2.51 15.8131 2.615 16.6931 2.811C16.881 2.85279 17.051 2.95246 17.1793 3.09598C17.3076 3.23949 17.3876 3.41962 17.4081 3.611L17.6171 5.489C17.6619 5.90556 17.859 6.29089 18.1706 6.57105C18.4821 6.8512 18.8861 7.00645 19.3051 7.007C19.5381 7.007 19.7691 6.958 19.9851 6.863L21.7051 6.106C21.8797 6.02914 22.0738 6.00845 22.2607 6.04679C22.4476 6.08513 22.6179 6.1806 22.7481 6.32C23.9916 7.65118 24.9175 9.24678 25.4561 10.987C25.5133 11.1699 25.512 11.3662 25.4523 11.5483C25.3926 11.7305 25.2775 11.8894 25.1231 12.003L23.5981 13.13C23.1631 13.45 22.9001 13.959 22.9001 14.5C22.9001 15.04 23.1631 15.549 23.5991 15.87L25.1251 16.996C25.4411 17.23 25.5751 17.638 25.4591 18.013C24.9195 19.7526 23.9942 21.3479 22.7521 22.68C22.622 22.8196 22.4517 22.9152 22.2649 22.9538C22.078 22.9923 21.8848 22.9717 21.7101 22.895ZM16.2621 22.697C16.5005 21.9496 17.0085 21.3176 17.6871 20.924C18.1236 20.6725 18.613 20.5269 19.1159 20.499C19.6189 20.471 20.1214 20.5614 20.5831 20.763L21.9271 21.353C22.7897 20.3529 23.4578 19.2005 23.8971 17.955L22.7081 17.078C22.3029 16.7812 21.9732 16.3921 21.7458 15.9443C21.5184 15.4964 21.3996 15.0013 21.3991 14.499C21.3991 13.472 21.8961 12.519 22.7061 11.923L22.7081 11.922L23.8951 11.045C23.4554 9.79978 22.787 8.64767 21.9241 7.648L20.5911 8.234L20.5891 8.235C20.1831 8.415 19.7461 8.507 19.3031 8.507C18.5152 8.50626 17.7552 8.21485 17.1688 7.6886C16.5824 7.16234 16.2108 6.43824 16.1251 5.655V5.653L15.9621 4.193C15.3188 4.07331 14.6664 4.00874 14.0121 4C13.3388 4.00933 12.6804 4.07367 12.0371 4.193L11.8741 5.654C11.818 6.15243 11.6457 6.63076 11.3712 7.05054C11.0967 7.47033 10.7275 7.81986 10.2934 8.07107C9.85924 8.32228 9.37222 8.46815 8.87147 8.49697C8.37072 8.52579 7.87018 8.43675 7.41009 8.237L6.07409 7.649C5.21123 8.64867 4.54275 9.80078 4.10309 11.046L5.29309 11.923C5.69723 12.2204 6.02578 12.6086 6.25222 13.0563C6.47867 13.504 6.59665 13.9988 6.59665 14.5005C6.59665 15.0022 6.47867 15.497 6.25222 15.9447C6.02578 16.3924 5.69723 16.7806 5.29309 17.078L4.10309 17.956C4.54178 19.2033 5.20994 20.3575 6.07309 21.359L7.41809 20.769C7.87689 20.5687 8.37628 20.4788 8.87613 20.5066C9.37597 20.5344 9.86233 20.6791 10.2961 20.929C10.7295 21.1794 11.0981 21.5279 11.3724 21.9467C11.6466 22.3654 11.8188 22.8426 11.8751 23.34V23.345L12.0371 24.809C13.3341 25.064 14.6671 25.064 15.9641 24.809L16.1261 23.342C16.1501 23.1207 16.1961 22.9057 16.2641 22.697" fill="#282828" fill-opacity="0.65"/>
</svg>
