<svg width="30" height="31" viewBox="0 0 30 31" fill="none" xmlns="http://www.w3.org/2000/svg">
<path d="M8.02876 24.25C7.18709 24.25 6.47209 23.9554 5.88376 23.3663C5.29542 22.7771 5.00084 22.0621 5.00001 21.2213V11.1013C5.00001 10.9238 5.06001 10.7754 5.18001 10.6563C5.30001 10.5371 5.44834 10.4767 5.62501 10.475H24.375C24.5525 10.475 24.7008 10.535 24.82 10.655C24.9392 10.775 24.9992 10.9233 25 11.1V21.22C25 22.0617 24.7054 22.7767 24.1163 23.365C23.5271 23.9533 22.8121 24.2483 21.9713 24.25H8.02876ZM6.25001 11.725V21.2213C6.25001 21.7254 6.42084 22.1479 6.76251 22.4888C7.10251 22.8296 7.52459 23 8.02876 23H21.9713C22.4754 23 22.8979 22.8292 23.2388 22.4875C23.5796 22.1475 23.75 21.7254 23.75 21.2213V11.7263L6.25001 11.725ZM11.875 7.49501V6.53376C11.875 6.24042 11.9708 5.99459 12.1625 5.79626C12.3542 5.59792 12.5988 5.49917 12.8963 5.50001H17.1038C17.4021 5.50001 17.6467 5.59917 17.8375 5.79751C18.0283 5.99584 18.1242 6.24126 18.125 6.53376V7.49626H24.375C24.5525 7.49626 24.7008 7.55584 24.82 7.675C24.94 7.795 25 7.94376 25 8.12126C25 8.29876 24.94 8.44709 24.82 8.56626C24.7 8.68542 24.5517 8.74501 24.375 8.74501H5.62501C5.44751 8.74501 5.29918 8.68501 5.18001 8.56501C5.06084 8.44501 5.00084 8.29667 5.00001 8.12001C4.99918 7.94334 5.05918 7.795 5.18001 7.675C5.30084 7.555 5.44918 7.49501 5.62501 7.49501H11.875Z" fill="#282828" fill-opacity="0.65"/>
</svg>
