<svg width="22" height="21" viewBox="0 0 22 21" fill="none" xmlns="http://www.w3.org/2000/svg">
<path d="M3.56392 20.8333C2.66614 20.8333 1.90347 20.519 1.27592 19.8906C0.648363 19.2622 0.334141 18.4995 0.333252 17.6026V6.14127H21.6666V17.6026C21.6666 18.5004 21.3524 19.2631 20.7239 19.8906C20.0955 20.5182 19.3328 20.8324 18.4359 20.8333H3.56392ZM0.333252 4.29461V2.96127H7.66658V1.93594C7.66658 1.62394 7.76881 1.36172 7.97325 1.14927C8.1777 0.93683 8.43859 0.831496 8.75592 0.833274H13.2439C13.5621 0.833274 13.823 0.939052 14.0266 1.15061C14.2301 1.36216 14.3324 1.62394 14.3333 1.93594V2.96261H21.6666V4.29594L0.333252 4.29461Z" fill="#86C364"/>
</svg>
