<svg width="27" height="16" viewBox="0 0 27 16" fill="none" xmlns="http://www.w3.org/2000/svg">
<path d="M20.8356 8.63127H5.83559C5.36893 8.63127 5.00226 8.2646 5.00226 7.79793C5.00226 7.33127 5.36893 6.9646 5.83559 6.9646H20.8356C21.3023 6.9646 21.6689 7.33127 21.6689 7.79793C21.6689 8.2646 21.3023 8.63127 20.8356 8.63127Z" fill="#282828"/>
<path d="M16.6689 14.4646C16.5596 14.4659 16.4513 14.4443 16.3508 14.4013C16.2503 14.3582 16.16 14.2946 16.0856 14.2146C15.7522 13.8812 15.7522 13.3646 16.0856 13.0312L21.3356 7.78123L16.0856 2.53123C15.7522 2.1979 15.7522 1.68123 16.0856 1.3479C16.4189 1.01457 16.9356 1.01457 17.2689 1.3479L23.1022 7.18123C23.4356 7.51457 23.4356 8.03123 23.1022 8.36457L17.2689 14.1979C17.1022 14.3646 16.8856 14.4479 16.6856 14.4479L16.6689 14.4646Z" fill="#282828"/>
</svg>
