<svg width="23" height="24" viewBox="0 0 23 24" fill="none" xmlns="http://www.w3.org/2000/svg">
<path d="M14.9048 15.405C15.5331 14.7767 16.0315 14.0308 16.3715 13.2098C16.7115 12.3889 16.8866 11.5091 16.8866 10.6205C16.8866 9.73193 16.7115 8.85207 16.3715 8.03115C16.0315 7.21023 15.5331 6.46432 14.9048 5.83601C14.2765 5.20771 13.5305 4.70931 12.7096 4.36927C11.8887 4.02923 11.0088 3.85422 10.1203 3.85422C9.23172 3.85422 8.35186 4.02923 7.53094 4.36927C6.71001 4.70931 5.96411 5.20771 5.3358 5.83601C4.06688 7.10494 3.354 8.82596 3.354 10.6205C3.354 12.415 4.06688 14.136 5.3358 15.405C6.60472 16.6739 8.32575 17.3868 10.1203 17.3868C11.9148 17.3868 13.6358 16.6739 14.9048 15.405ZM14.9048 15.405L19.1665 19.6667" stroke="#282828" stroke-opacity="0.9" stroke-width="2.5" stroke-linecap="round" stroke-linejoin="round"/>
</svg>
