<svg width="26" height="26" viewBox="0 0 26 26" fill="none" xmlns="http://www.w3.org/2000/svg">
<path d="M16.25 2.16667V13C16.25 14.1917 15.275 15.1667 14.0833 15.1667H2.16666L2.16666 8.255C2.95749 9.1975 4.17085 9.78251 5.51419 9.75001C6.60835 9.72834 7.59416 9.30584 8.33083 8.60167C8.66666 8.32001 8.94835 7.96249 9.16501 7.57249C9.55501 6.91166 9.77166 6.13164 9.74999 5.31914C9.71749 4.05164 9.15417 2.93584 8.27667 2.16667L16.25 2.16667Z" stroke="#01DC82" stroke-width="1.5" stroke-linecap="round" stroke-linejoin="round"/>
<path d="M23.8333 15.1667V18.4167C23.8333 20.215 22.3817 21.6667 20.5833 21.6667H19.5C19.5 20.475 18.525 19.5 17.3333 19.5C16.1417 19.5 15.1667 20.475 15.1667 21.6667H10.8333C10.8333 20.475 9.85832 19.5 8.66666 19.5C7.47499 19.5 6.49999 20.475 6.49999 21.6667H5.41666C3.61832 21.6667 2.16666 20.215 2.16666 18.4167L2.16666 15.1667H14.0833C15.275 15.1667 16.25 14.1917 16.25 13V5.41667H18.2434C19.0234 5.41667 19.7383 5.83918 20.1283 6.51085L21.9808 9.75001H20.5833C19.9875 9.75001 19.5 10.2375 19.5 10.8333V14.0833C19.5 14.6792 19.9875 15.1667 20.5833 15.1667H23.8333Z" stroke="#01DC82" stroke-width="1.5" stroke-linecap="round" stroke-linejoin="round"/>
<path d="M8.66667 23.8333C9.86328 23.8333 10.8333 22.8633 10.8333 21.6667C10.8333 20.47 9.86328 19.5 8.66667 19.5C7.47005 19.5 6.5 20.47 6.5 21.6667C6.5 22.8633 7.47005 23.8333 8.66667 23.8333Z" stroke="#01DC82" stroke-width="1.5" stroke-linecap="round" stroke-linejoin="round"/>
<path d="M17.3333 23.8333C18.53 23.8333 19.5 22.8633 19.5 21.6667C19.5 20.47 18.53 19.5 17.3333 19.5C16.1367 19.5 15.1667 20.47 15.1667 21.6667C15.1667 22.8633 16.1367 23.8333 17.3333 23.8333Z" stroke="#0C0507" stroke-width="1.5" stroke-linecap="round" stroke-linejoin="round"/>
<path d="M23.8333 13V15.1667H20.5833C19.9875 15.1667 19.5 14.6792 19.5 14.0833V10.8333C19.5 10.2375 19.9875 9.75 20.5833 9.75H21.9808L23.8333 13Z" stroke="#0C0507" stroke-width="1.5" stroke-linecap="round" stroke-linejoin="round"/>
<path d="M9.75 5.31915C9.77167 6.13165 9.55503 6.91167 9.16503 7.57251C8.94836 7.96251 8.66667 8.32002 8.33084 8.60169C7.59417 9.30585 6.60837 9.72835 5.5142 9.75002C4.17087 9.78252 2.9575 9.19751 2.16667 8.25501C2.015 8.09251 1.88501 7.90835 1.76584 7.72419C1.34334 7.08502 1.105 6.32671 1.08334 5.51421C1.05084 4.14921 1.65749 2.90334 2.63249 2.09084C3.36916 1.48418 4.30081 1.10502 5.31914 1.08335C6.45664 1.06168 7.49669 1.47335 8.27669 2.16668C9.15419 2.93585 9.7175 4.05165 9.75 5.31915Z" stroke="#0C0507" stroke-width="1.5" stroke-miterlimit="10" stroke-linecap="round" stroke-linejoin="round"/>
<path d="M3.72668 5.44919L4.82086 6.48915L7.08499 4.3008" stroke="#0C0507" stroke-width="1.5" stroke-linecap="round" stroke-linejoin="round"/>
</svg>
