<svg width="43" height="43" viewBox="0 0 43 43" fill="none" xmlns="http://www.w3.org/2000/svg">
<path d="M30.4047 37.4662L37.4997 33.0158L30.4047 28.5631V37.4662ZM7.17863 11.5062H31.154V9.21457H7.17863V11.5062ZM32.9163 42.1825C30.3634 42.1825 28.1978 41.2926 26.4195 39.5127C24.6396 37.7344 23.7497 35.5687 23.7497 33.0158C23.7497 30.4629 24.6396 28.2965 26.4195 26.5167C28.1993 24.7368 30.365 23.8476 32.9163 23.8492C35.4677 23.8507 37.6341 24.7399 39.4155 26.5167C41.1969 28.2935 42.0861 30.4599 42.083 33.0158C42.083 35.5672 41.1938 37.7328 39.4155 39.5127C37.6341 41.2926 35.4677 42.1825 32.9163 42.1825ZM0.833008 39.0956V0.666656H37.4997V17.9917C37.1269 17.8542 36.7572 17.7365 36.3905 17.6387C36.0223 17.541 35.6281 17.4646 35.208 17.4096V2.95832H3.12467V35.1562H17.663C17.7669 35.7826 17.9013 36.3953 18.0663 36.9942C18.2329 37.593 18.4643 38.1644 18.7607 38.7083L18.6828 38.7862L16.0818 36.8933L12.9972 39.0956L9.91259 36.8933L6.82801 39.0956L3.74113 36.8933L0.833008 39.0956ZM7.18092 28.7831H17.9724C18.0579 28.363 18.1634 27.9696 18.2886 27.6029C18.4139 27.2362 18.5606 26.8658 18.7286 26.4914H7.18092V28.7831ZM7.18092 20.1458H23.933C24.6816 19.5546 25.4837 19.0619 26.3393 18.6677C27.1948 18.272 28.1092 18.0008 29.0824 17.8542H7.17863L7.18092 20.1458Z" fill="#282828"/>
</svg>
