<svg width="25" height="52" viewBox="0 0 25 52" fill="none" xmlns="http://www.w3.org/2000/svg">
<path d="M21.4062 3.84375V8.45006L14.2812 15.5751V0.28125H10.7188V15.5751L3.59375 8.45006V3.84375H0.03125V32.3438C0.03624 35.3391 1.11876 38.2327 3.08102 40.4959C5.04329 42.759 7.7543 44.2406 10.7188 44.67V51.9375H14.2812V44.67C17.2457 44.2406 19.9567 42.759 21.919 40.4959C23.8812 38.2327 24.9638 35.3391 24.9688 32.3438V3.84375H21.4062ZM10.7188 41.0701C8.70891 40.6564 6.90302 39.5628 5.60524 37.9733C4.30746 36.3839 3.59708 34.3957 3.59375 32.3438V27.7374L10.7188 34.8624V41.0701ZM10.7188 29.8251L3.59375 22.7001V13.4874L10.7188 20.6124V29.8251ZM14.2812 20.6124L21.4062 13.4874V22.7001L14.2812 29.8251V20.6124ZM14.2812 41.0701V34.8624L21.4062 27.7374V32.3438C21.4029 34.3957 20.6925 36.3839 19.3948 37.9733C18.097 39.5628 16.2911 40.6564 14.2812 41.0701Z" fill="#282828"/>
</svg>
