<svg width="44" height="50" viewBox="0 0 44 50" fill="none" xmlns="http://www.w3.org/2000/svg">
<path d="M33.1457 12.9688H40.1857C40.6115 12.9692 41.022 13.1276 41.3376 13.4134C41.6533 13.6992 41.8516 14.092 41.8942 14.5156L42.9426 25H39.4845L38.6251 16.4062H33.1457V21.5625C33.1457 22.0183 32.9646 22.4555 32.6423 22.7778C32.32 23.1002 31.8828 23.2812 31.427 23.2812C30.9711 23.2812 30.534 23.1002 30.2116 22.7778C29.8893 22.4555 29.7082 22.0183 29.7082 21.5625V16.4062H15.9582V21.5625C15.9582 22.0183 15.7771 22.4555 15.4548 22.7778C15.1325 23.1002 14.6953 23.2812 14.2395 23.2812C13.7836 23.2812 13.3465 23.1002 13.0241 22.7778C12.7018 22.4555 12.5207 22.0183 12.5207 21.5625V16.4062H7.03791L4.28791 43.9062H22.8332V47.3438H2.38698C2.14691 47.3435 1.90956 47.293 1.69022 47.1954C1.47087 47.0979 1.27439 46.9555 1.11344 46.7773C0.952494 46.5992 0.83064 46.3894 0.755734 46.1613C0.680828 45.9332 0.654531 45.692 0.678537 45.4531L3.77229 14.5156C3.81487 14.092 4.01319 13.6992 4.32882 13.4134C4.64445 13.1276 5.05493 12.9692 5.48072 12.9688H12.5207V11.7691C12.5207 5.80844 17.1132 0.9375 22.8332 0.9375C28.5532 0.9375 33.1457 5.80844 33.1457 11.7691V12.9722V12.9688ZM29.7082 12.9688V11.7691C29.7082 7.66469 26.6076 4.375 22.8332 4.375C19.0588 4.375 15.9582 7.66469 15.9582 11.7691V12.9722H29.7082V12.9688ZM40.526 38.9563L36.5832 35.0169V47.3438C36.5832 47.7996 36.4021 48.2368 36.0798 48.5591C35.7575 48.8814 35.3203 49.0625 34.8645 49.0625C34.4086 49.0625 33.9715 48.8814 33.6491 48.5591C33.3268 48.2368 33.1457 47.7996 33.1457 47.3438V35.0169L29.2063 38.9563C29.0478 39.1204 28.8581 39.2513 28.6484 39.3414C28.4388 39.4315 28.2132 39.4789 27.985 39.4809C27.7568 39.4829 27.5305 39.4394 27.3192 39.353C27.108 39.2666 26.9161 39.1389 26.7547 38.9776C26.5934 38.8162 26.4657 38.6243 26.3793 38.413C26.2929 38.2018 26.2494 37.9755 26.2514 37.7473C26.2534 37.5191 26.3008 37.2935 26.3909 37.0838C26.4809 36.8741 26.6119 36.6845 26.776 36.5259L33.651 29.6509C33.9734 29.3287 34.4104 29.1477 34.8662 29.1477C35.3219 29.1477 35.759 29.3287 36.0813 29.6509L42.9563 36.5259C43.1205 36.6845 43.2514 36.8741 43.3415 37.0838C43.4316 37.2935 43.479 37.5191 43.481 37.7473C43.483 37.9755 43.4395 38.2018 43.3531 38.413C43.2667 38.6243 43.139 38.8162 42.9776 38.9776C42.8163 39.1389 42.6244 39.2666 42.4131 39.353C42.2019 39.4394 41.9756 39.4829 41.7474 39.4809C41.5192 39.4789 41.2936 39.4315 41.0839 39.3414C40.8742 39.2513 40.6846 39.1204 40.526 38.9563Z" fill="#282828"/>
</svg>
