<svg width="38" height="39" viewBox="0 0 38 39" fill="none" xmlns="http://www.w3.org/2000/svg">
<g id="material-symbols:weather-hail-outline">
<path id="Vector" d="M19.7915 37.058L17.4165 34.683L19.7915 32.308L22.1665 34.683L19.7915 37.058ZM14.329 34.683L12.6665 33.0205L17.3373 28.3497L18.9998 30.0122L14.329 34.683ZM24.5415 32.308L22.1665 29.933L24.5415 27.558L26.9165 29.933L24.5415 32.308ZM10.2915 32.308L7.9165 29.933L10.2915 27.558L12.6665 29.933L10.2915 32.308ZM11.8748 25.9747C9.47345 25.9747 7.42198 25.1239 5.72042 23.4223C4.01886 21.7208 3.16756 19.6688 3.1665 17.2663C3.1665 15.076 3.8922 13.1628 5.34359 11.5267C6.79498 9.89062 8.58942 8.92743 10.7269 8.63715C11.5714 7.13299 12.7261 5.95182 14.1913 5.09365C15.6564 4.23549 17.2592 3.80693 18.9998 3.80799C21.3748 3.80799 23.44 4.56693 25.1954 6.08482C26.9508 7.60271 28.0127 9.49585 28.3811 11.7642C30.2019 11.9226 31.7325 12.6747 32.9728 14.0205C34.213 15.3663 34.8332 16.976 34.8332 18.8497C34.8332 20.8288 34.1407 22.5114 32.7558 23.8973C31.3709 25.2833 29.6884 25.9757 27.7082 25.9747H11.8748ZM11.8748 22.808H27.7082C28.8165 22.808 29.7533 22.4253 30.5186 21.6601C31.2839 20.8948 31.6665 19.958 31.6665 18.8497C31.6665 17.7413 31.2839 16.8045 30.5186 16.0392C29.7533 15.274 28.8165 14.8913 27.7082 14.8913H25.3332V13.308C25.3332 11.5663 24.713 10.0753 23.4728 8.83507C22.2325 7.59479 20.7415 6.97465 18.9998 6.97465C17.7332 6.97465 16.5789 7.31771 15.5371 8.00382C14.4953 8.68993 13.7099 9.61354 13.1811 10.7747L12.7853 11.7247H11.7957C10.2915 11.7774 9.00531 12.3385 7.93709 13.4077C6.86886 14.477 6.33423 15.7632 6.33317 17.2663C6.33317 18.7969 6.87414 20.1031 7.95609 21.1851C9.03803 22.267 10.3443 22.808 11.8748 22.808Z" fill="#282828"/>
</g>
</svg>
