<svg width="590" height="592" viewBox="0 0 590 592" fill="none" xmlns="http://www.w3.org/2000/svg">
<path opacity="0.987" fill-rule="evenodd" clip-rule="evenodd" d="M516.5 107.298C508.043 99.4005 502.376 89.7338 499.5 78.2978C506.298 74.6898 508.798 69.0232 507 61.2978C503.838 55.6329 499.005 52.9662 492.5 53.2978C490.645 42.3669 491.312 31.7003 494.5 21.2978C494.953 20.3394 495.619 19.5061 496.5 18.7978C502.378 17.1446 507.212 18.6446 511 23.2978C528.2 47.5135 533.7 74.1802 527.5 103.298C524.824 106.95 521.158 108.284 516.5 107.298Z" fill="#FECE2E"/>
<path opacity="0.507" fill-rule="evenodd" clip-rule="evenodd" d="M546.5 19.2979C547.5 19.2979 548.5 19.2979 549.5 19.2979C549.415 21.7267 548.415 23.7267 546.5 25.2979C542.474 28.9928 538.474 32.6595 534.5 36.2979C533.692 35.9903 533.025 35.4903 532.5 34.7979C537.766 30.0392 542.433 24.8725 546.5 19.2979Z" fill="#FFCF2D"/>
<path opacity="0.985" fill-rule="evenodd" clip-rule="evenodd" d="M494.5 21.2979C491.312 31.7004 490.645 42.367 492.5 53.2979C493.458 62.1308 495.791 70.4641 499.5 78.2979C502.376 89.7338 508.043 99.4006 516.5 107.298C497.795 100.515 478.461 96.182 458.5 94.2979C453.733 93.0005 449.066 93.0005 444.5 94.2979C439.167 94.2979 433.833 94.2979 428.5 94.2979C421.417 87.7785 419.751 80.112 423.5 71.2979C450.703 59.7792 474.369 43.1125 494.5 21.2979Z" fill="#67AFEF"/>
<path opacity="0.689" fill-rule="evenodd" clip-rule="evenodd" d="M557.5 50.2979C559.167 50.2979 560.833 50.2979 562.5 50.2979C562.5 51.2979 562.5 52.2979 562.5 53.2979C555.554 54.887 548.554 56.2204 541.5 57.2979C541.5 56.2979 541.5 55.2979 541.5 54.2979C547.032 53.3299 552.366 51.9965 557.5 50.2979Z" fill="#FFD02E"/>
<path opacity="0.999" fill-rule="evenodd" clip-rule="evenodd" d="M375.5 59.2978C369.175 64.4724 368.842 70.1391 374.5 76.2978C371.145 79.9845 367.811 83.6512 364.5 87.2978C362.068 88.548 359.734 90.048 357.5 91.7978C353.049 91.9276 348.716 92.5942 344.5 93.7978C342.081 95.3066 341.081 97.4733 341.5 100.298C336.817 100.165 332.484 101.165 328.5 103.298C318.571 105.075 308.571 105.575 298.5 104.798C295.197 103.791 294.03 101.625 295 98.2978C296.167 96.4645 297.667 94.9645 299.5 93.7978C307.761 88.8342 316.428 84.6676 325.5 81.2978C327.233 87.1025 330.233 92.1025 334.5 96.2978C334.833 95.9645 335.167 95.6311 335.5 95.2978C331.953 90.2322 329.62 84.8989 328.5 79.2978C332.568 58.9738 344.901 50.1405 365.5 52.7978C369.411 54.242 372.744 56.4087 375.5 59.2978Z" fill="#F84F46"/>
<path fill-rule="evenodd" clip-rule="evenodd" d="M476.5 45.2979C478.549 45.5037 478.883 46.337 477.5 47.7979C465.846 57.2976 453.18 65.2976 439.5 71.7979C437.553 72.7892 435.553 73.1226 433.5 72.7979C449.658 66.0744 463.991 56.9078 476.5 45.2979Z" fill="#9CD0F5"/>
<path fill-rule="evenodd" clip-rule="evenodd" d="M492.5 53.2978C499.005 52.9662 503.838 55.6329 507 61.2978C508.798 69.0232 506.298 74.6898 499.5 78.2978C495.791 70.464 493.458 62.1307 492.5 53.2978Z" fill="#F85246"/>
<path fill-rule="evenodd" clip-rule="evenodd" d="M375.5 59.2979C377.716 60.0005 379.549 61.3338 381 63.2979C382.511 65.6595 384.011 67.9928 385.5 70.2979C383.537 71.7578 381.704 73.4245 380 75.2979C379.152 78.4957 377.652 81.329 375.5 83.7979C373.888 84.5182 372.388 84.3515 371 83.2979C369.028 85.0297 366.861 86.3631 364.5 87.2979C367.811 83.6513 371.145 79.9846 374.5 76.2979C368.842 70.1392 369.175 64.4725 375.5 59.2979Z" fill="#682A4E"/>
<path opacity="0.97" fill-rule="evenodd" clip-rule="evenodd" d="M423.5 71.2979C419.751 80.112 421.417 87.7786 428.5 94.2979C424.666 95.9644 420.666 96.4644 416.5 95.7979C410.67 89.6743 409.503 82.8409 413 75.2979C416.335 73.6567 419.835 72.3234 423.5 71.2979Z" fill="#993F84"/>
<path opacity="0.991" fill-rule="evenodd" clip-rule="evenodd" d="M385.5 70.2979C387.272 73.3921 389.938 75.3921 393.5 76.2979C393.892 82.6328 395.392 88.6328 398 94.2979C400.295 101.486 398.128 106.653 391.5 109.798C387.914 110.906 384.247 111.406 380.5 111.298C376.005 110.376 371.338 109.709 366.5 109.298C367.313 114.111 369.98 117.445 374.5 119.298C369.979 130.009 366.312 141.009 363.5 152.298C359.854 145.687 355.688 139.354 351 133.298C347.787 129.913 343.954 127.58 339.5 126.298C343.806 121.354 346.806 115.687 348.5 109.298C361.704 108.198 361.704 107.365 348.5 106.798C344.992 105.786 342.658 103.62 341.5 100.298C341.081 97.4734 342.081 95.3067 344.5 93.7979C348.716 92.5943 353.049 91.9277 357.5 91.7979C359.734 90.0481 362.068 88.5481 364.5 87.2979C366.861 86.3631 369.028 85.0297 371 83.2979C372.388 84.3515 373.888 84.5182 375.5 83.7979C377.652 81.329 379.152 78.4957 380 75.2979C381.704 73.4245 383.537 71.7578 385.5 70.2979Z" fill="#F1A89F"/>
<path fill-rule="evenodd" clip-rule="evenodd" d="M382.5 75.2979C386.536 75.3703 387.37 77.037 385 80.2979C383.428 82.3607 381.595 83.0273 379.5 82.2979C380.788 80.0591 381.788 77.7258 382.5 75.2979Z" fill="#672E4F"/>
<path opacity="0.508" fill-rule="evenodd" clip-rule="evenodd" d="M543.5 77.2979C550.361 78.1095 557.027 79.7762 563.5 82.2979C564.386 83.1229 564.719 84.1229 564.5 85.2979C557.589 83.2492 550.589 81.5825 543.5 80.2979C543.5 79.2979 543.5 78.2979 543.5 77.2979Z" fill="#FFD22A"/>
<path fill-rule="evenodd" clip-rule="evenodd" d="M328.5 79.2979C329.62 84.899 331.953 90.2323 335.5 95.2979C335.167 95.6312 334.833 95.9646 334.5 96.2979C330.233 92.1026 327.233 87.1026 325.5 81.2979C325.973 79.8916 326.973 79.2249 328.5 79.2979Z" fill="#682747"/>
<path fill-rule="evenodd" clip-rule="evenodd" d="M383.5 90.2979C384.922 90.5475 385.922 91.3809 386.5 92.7979C388.167 93.1312 389.833 93.4646 391.5 93.7979C387.059 96.4851 384.393 95.3185 383.5 90.2979Z" fill="#B35A8A"/>
<path opacity="0.953" fill-rule="evenodd" clip-rule="evenodd" d="M458.5 94.2979C459.022 99.3305 459.689 104.331 460.5 109.298C457.212 112.722 453.712 116.055 450 119.298C450.517 114.058 451.684 108.891 453.5 103.798C453.167 102.965 452.833 102.131 452.5 101.298C450.132 102.687 447.799 104.02 445.5 105.298C445.276 101.619 444.942 97.9524 444.5 94.2979C449.066 93.0006 453.733 93.0006 458.5 94.2979Z" fill="#9D3F84"/>
<path opacity="0.99" fill-rule="evenodd" clip-rule="evenodd" d="M341.5 100.298C342.658 103.62 344.992 105.786 348.5 106.798C361.704 107.365 361.704 108.198 348.5 109.298C346.806 115.687 343.806 121.354 339.5 126.298C334.497 125.883 330.33 127.55 327 131.298C302.509 163.463 276.175 194.13 248 223.298C246.15 226.261 246.15 229.261 248 232.298C251.03 236.493 254.53 240.159 258.5 243.298C258.158 244.136 257.492 244.47 256.5 244.298C231.761 243.057 220.261 230.057 222 205.298C222.667 203.298 223.333 201.298 224 199.298C228.064 193.562 231.73 187.562 235 181.298C236.121 173.008 236.787 164.674 237 156.298C240.59 137.042 252.09 125.875 271.5 122.798C283.565 122.532 295.565 121.532 307.5 119.798C316.099 116.369 323.099 110.869 328.5 103.298C332.484 101.165 336.817 100.165 341.5 100.298Z" fill="#6D2A53"/>
<path opacity="0.998" fill-rule="evenodd" clip-rule="evenodd" d="M380.5 111.298C378.488 114.003 376.488 116.67 374.5 119.298C369.98 117.445 367.313 114.111 366.5 109.298C371.338 109.709 376.005 110.376 380.5 111.298Z" fill="#662E4E"/>
<path opacity="0.999" fill-rule="evenodd" clip-rule="evenodd" d="M469.5 123.298C469.5 123.631 469.5 123.965 469.5 124.298C461.989 126.727 455.322 130.727 449.5 136.298C448.676 133.013 448.176 129.68 448 126.298C445.754 131.124 443.254 135.79 440.5 140.298C439.833 141.631 439.167 141.631 438.5 140.298C442.15 135.166 445.15 129.666 447.5 123.798C449.5 123.465 451.5 123.131 453.5 122.798C456.833 120.798 460.167 118.798 463.5 116.798C464.833 116.131 466.167 116.131 467.5 116.798C460.759 119.252 454.925 123.085 450 128.298C449.517 129.246 449.351 130.246 449.5 131.298C450.873 131.455 452.207 131.288 453.5 130.798C457.167 128.465 460.833 126.131 464.5 123.798C466.134 123.304 467.801 123.138 469.5 123.298Z" fill="#AB5189"/>
<path opacity="0.998" fill-rule="evenodd" clip-rule="evenodd" d="M339.5 126.298C343.954 127.58 347.787 129.913 351 133.298C355.688 139.354 359.854 145.687 363.5 152.298C368.497 168.294 373.497 184.294 378.5 200.298C378.5 201.298 378.5 202.298 378.5 203.298C377.5 203.631 376.833 204.298 376.5 205.298C360.257 217.922 341.924 225.255 321.5 227.298C313.82 227.754 306.487 229.421 299.5 232.298C302.758 223.026 305.924 213.693 309 204.298C313.099 183.248 317.099 162.248 321 141.298C319.803 143.887 318.803 146.554 318 149.298C313.999 169.302 309.999 189.302 306 209.298C303.326 217.485 300.159 225.485 296.5 233.298C296.624 233.905 296.957 234.238 297.5 234.298C295.33 240.665 297.663 244.498 304.5 245.798C312.612 246.684 320.612 246.184 328.5 244.298C332.153 252.45 337.486 259.283 344.5 264.798C343.207 265.288 341.873 265.455 340.5 265.298C315.644 261.797 293.311 252.463 273.5 237.298C268.398 233.372 263.398 229.206 258.5 224.798C248.707 221.933 246.207 225.1 251 234.298C254.062 237.53 257.229 240.53 260.5 243.298C259.833 243.298 259.167 243.298 258.5 243.298C254.53 240.159 251.03 236.493 248 232.298C246.15 229.261 246.15 226.261 248 223.298C276.175 194.13 302.509 163.463 327 131.298C330.33 127.55 334.497 125.883 339.5 126.298Z" fill="#86C364"/>
<path opacity="0.953" fill-rule="evenodd" clip-rule="evenodd" d="M197.5 91.2979C198.822 91.1279 199.989 91.4613 201 92.2979C207.946 105.102 210.279 118.769 208 133.298C206.647 140.203 202.814 145.036 196.5 147.798C185.394 152.183 174.394 156.85 163.5 161.798C155.11 164.087 147.444 162.587 140.5 157.298C139.167 156.298 139.167 155.298 140.5 154.298C149.751 150.103 159.085 146.103 168.5 142.298C170.265 130.18 168.265 118.68 162.5 107.798C162.833 107.298 163.167 106.798 163.5 106.298C174.9 101.282 186.234 96.2822 197.5 91.2979Z" fill="#69B1F0"/>
<path fill-rule="evenodd" clip-rule="evenodd" d="M195.5 94.2979C197.144 94.0844 198.644 94.4177 200 95.2979C206.919 108.768 208.253 122.768 204 137.298C200.061 144.84 193.895 147.34 185.5 144.798C182.623 143.842 179.956 142.509 177.5 140.798C175.888 140.078 174.388 140.244 173 141.298C172.897 129.904 170.397 119.071 165.5 108.798C175.38 103.691 185.38 98.8577 195.5 94.2979Z" fill="#FCFCFD"/>
<path fill-rule="evenodd" clip-rule="evenodd" d="M192.5 123.298C196.487 123.45 197.987 125.45 197 129.298C193.749 132.258 191.582 131.591 190.5 127.298C190.752 125.725 191.418 124.392 192.5 123.298Z" fill="#FC8981"/>
<path fill-rule="evenodd" clip-rule="evenodd" d="M192.5 125.298C193.5 125.298 194.5 125.298 195.5 125.298C195.5 126.631 195.5 127.965 195.5 129.298C194.5 129.298 193.5 129.298 192.5 129.298C192.5 127.965 192.5 126.631 192.5 125.298Z" fill="#FFF4F3"/>
<path fill-rule="evenodd" clip-rule="evenodd" d="M181.5 117.298C183.157 121.154 181.824 122.987 177.5 122.798C174.612 119.626 175.278 117.459 179.5 116.298C180.416 116.341 181.083 116.674 181.5 117.298Z" fill="#FC8A82"/>
<path fill-rule="evenodd" clip-rule="evenodd" d="M189.5 108.298C190.376 108.167 191.043 108.5 191.5 109.298C188.769 117.99 185.936 126.657 183 135.298C184.679 126.245 186.846 117.245 189.5 108.298Z" fill="#FB7F77"/>
<path fill-rule="evenodd" clip-rule="evenodd" d="M181.5 117.298C181.833 120.298 180.5 121.631 177.5 121.298C177.167 118.298 178.5 116.965 181.5 117.298Z" fill="#FFEDEC"/>
<path opacity="0.946" fill-rule="evenodd" clip-rule="evenodd" d="M462.5 142.298C462.997 146.557 462.331 150.557 460.5 154.298C456.305 155.987 452.638 155.32 449.5 152.298C449.5 147.631 449.5 142.965 449.5 138.298C451.199 138.458 452.866 138.292 454.5 137.798C457.875 134.438 461.875 132.772 466.5 132.798C461.54 134.945 456.873 137.612 452.5 140.798C451.663 141.809 451.33 142.976 451.5 144.298C455.167 143.631 458.833 142.965 462.5 142.298Z" fill="#9E4183"/>
<path opacity="0.992" fill-rule="evenodd" clip-rule="evenodd" d="M460.5 109.298C463.448 109.021 466.281 109.354 469 110.298C469.377 113.817 469.877 117.317 470.5 120.798C470.472 121.868 470.139 122.701 469.5 123.298C467.801 123.138 466.134 123.304 464.5 123.798C460.833 126.131 457.167 128.465 453.5 130.798C452.207 131.288 450.873 131.455 449.5 131.298C449.351 130.246 449.517 129.246 450 128.298C454.925 123.085 460.759 119.252 467.5 116.798C466.167 116.131 464.833 116.131 463.5 116.798C460.167 118.798 456.833 120.798 453.5 122.798C451.5 123.131 449.5 123.465 447.5 123.798C445.15 129.666 442.15 135.166 438.5 140.298C439.167 141.631 439.833 141.631 440.5 140.298C443.254 135.79 445.754 131.124 448 126.298C448.176 129.68 448.676 133.013 449.5 136.298C455.322 130.727 461.989 126.727 469.5 124.298C470.936 127.299 470.603 130.133 468.5 132.798C469.554 134.186 469.72 135.686 469 137.298C467.266 139.532 465.1 141.199 462.5 142.298C458.833 142.965 455.167 143.631 451.5 144.298C451.33 142.976 451.663 141.809 452.5 140.798C456.873 137.612 461.54 134.945 466.5 132.798C461.875 132.772 457.875 134.438 454.5 137.798C452.866 138.292 451.199 138.458 449.5 138.298C449.5 142.965 449.5 147.631 449.5 152.298C444.279 171.032 437.612 189.199 429.5 206.798C447.735 205.391 463.568 198.558 477 186.298C480.858 180.561 484.691 174.894 488.5 169.298C489.478 169.775 490.311 170.441 491 171.298C491.594 177.654 491.427 183.987 490.5 190.298C493.418 189.344 496.418 188.677 499.5 188.298C501.693 188.124 503.527 188.791 505 190.298C505.455 193.579 506.289 196.746 507.5 199.798C506.313 202.277 506.313 204.777 507.5 207.298C506.918 210.953 506.418 214.62 506 218.298C505.215 220.084 504.049 221.584 502.5 222.798C475.121 232.321 449.454 245.321 425.5 261.798C409.698 270.28 392.865 275.447 375 277.298C366.411 276.624 358.244 274.624 350.5 271.298C347.874 267.982 344.54 265.982 340.5 265.298C341.873 265.455 343.207 265.288 344.5 264.798C337.486 259.283 332.153 252.45 328.5 244.298C327.471 242.281 326.471 240.281 325.5 238.298C340.11 233.827 353.444 226.993 365.5 217.798C369.77 214.037 373.437 209.87 376.5 205.298C376.833 204.298 377.5 203.631 378.5 203.298C381.105 207.592 383.772 211.925 386.5 216.298C382.66 218.719 378.66 220.886 374.5 222.798C373.304 223.452 373.304 223.952 374.5 224.298C389.062 217.322 404.395 212.822 420.5 210.798C423.327 210.097 425.994 209.097 428.5 207.798C415.229 209.768 402.062 212.601 389 216.298C385.078 211.461 381.912 206.128 379.5 200.298C386.304 192.044 392.637 183.377 398.5 174.298C407.667 157.965 416.833 141.631 426 125.298C431.669 117.796 438.169 111.129 445.5 105.298C447.799 104.02 450.132 102.687 452.5 101.298C452.833 102.131 453.167 102.965 453.5 103.798C451.684 108.891 450.517 114.058 450 119.298C453.712 116.055 457.212 112.722 460.5 109.298Z" fill="#FBB5B0"/>
<path fill-rule="evenodd" clip-rule="evenodd" d="M299.5 232.298C299.167 233.298 298.5 233.965 297.5 234.298C296.957 234.238 296.624 233.905 296.5 233.298C300.159 225.485 303.326 217.485 306 209.298C309.999 189.302 313.999 169.302 318 149.298C318.803 146.554 319.803 143.887 321 141.298C317.099 162.248 313.099 183.248 309 204.298C305.924 213.693 302.758 223.026 299.5 232.298Z" fill="#54CACB"/>
<path fill-rule="evenodd" clip-rule="evenodd" d="M376.5 205.298C373.437 209.87 369.77 214.037 365.5 217.798C353.444 226.993 340.11 233.827 325.5 238.298C324.168 234.636 322.835 230.97 321.5 227.298C341.924 225.255 360.257 217.922 376.5 205.298Z" fill="#9A4083"/>
<path fill-rule="evenodd" clip-rule="evenodd" d="M378.5 200.298C378.833 200.298 379.167 200.298 379.5 200.298C381.912 206.128 385.078 211.461 389 216.298C402.062 212.601 415.229 209.768 428.5 207.798C425.994 209.097 423.327 210.097 420.5 210.798C404.395 212.822 389.062 217.322 374.5 224.298C373.304 223.952 373.304 223.452 374.5 222.798C378.66 220.886 382.66 218.719 386.5 216.298C383.772 211.925 381.105 207.592 378.5 203.298C378.5 202.298 378.5 201.298 378.5 200.298Z" fill="#B55E8E"/>
<path fill-rule="evenodd" clip-rule="evenodd" d="M273.5 237.298C268.83 238.465 264.497 240.465 260.5 243.298C257.229 240.53 254.062 237.53 251 234.298C246.207 225.1 248.707 221.933 258.5 224.798C263.398 229.206 268.398 233.372 273.5 237.298Z" fill="#6D2C54"/>
<path fill-rule="evenodd" clip-rule="evenodd" d="M321.5 227.298C322.835 230.97 324.168 234.636 325.5 238.298C326.471 240.281 327.471 242.281 328.5 244.298C320.612 246.184 312.612 246.684 304.5 245.798C297.663 244.498 295.33 240.665 297.5 234.298C298.5 233.965 299.167 233.298 299.5 232.298C306.487 229.421 313.82 227.754 321.5 227.298Z" fill="#5B2649"/>
<path opacity="0.996" fill-rule="evenodd" clip-rule="evenodd" d="M273.5 237.298C293.311 252.463 315.644 261.797 340.5 265.298C344.54 265.982 347.874 267.982 350.5 271.298C368.786 296.623 384.953 323.29 399 351.298C415.275 392.763 416.775 434.763 403.5 477.298C402.5 477.298 401.5 477.298 400.5 477.298C384.825 478.229 369.825 475.562 355.5 469.298C346.209 464.986 337.209 460.153 328.5 454.798C322.42 452.159 316.087 450.659 309.5 450.298C321.606 439.357 332.106 427.024 341 413.298C343.52 408.906 345.353 404.239 346.5 399.298C348.882 392.555 349.549 385.555 348.5 378.298C347.717 385.14 346.717 391.806 345.5 398.298C338.155 385.658 329.322 373.992 319 363.298C308.938 353.069 298.772 343.069 288.5 333.298C279.811 323.273 271.477 312.94 263.5 302.298C263.167 302.631 262.833 302.965 262.5 303.298C270.133 313.926 278.466 323.926 287.5 333.298C283.822 342.983 278.822 351.983 272.5 360.298C241.166 397.292 202.499 423.292 156.5 438.298C162.458 433.369 164.791 427.035 163.5 419.298C162.581 407.326 160.581 395.66 157.5 384.298C155.737 373.701 155.237 363.034 156 352.298C156.573 346.669 158.073 341.335 160.5 336.298C161.925 334.876 162.925 333.209 163.5 331.298C177.077 332.493 190.41 334.826 203.5 338.298C205.923 334.453 208.09 330.453 210 326.298C216.111 306.421 224.111 287.421 234 269.298C239.925 259.54 247.425 251.207 256.5 244.298C257.492 244.47 258.158 244.136 258.5 243.298C259.167 243.298 259.833 243.298 260.5 243.298C264.497 240.465 268.83 238.465 273.5 237.298Z" fill="#F84F46"/>
<path opacity="0.939" fill-rule="evenodd" clip-rule="evenodd" d="M147.5 202.298C149.017 202.309 150.184 202.975 151 204.298C159.343 212.975 167.343 221.975 175 231.298C175.667 232.298 175.667 233.298 175 234.298C166.323 241.313 159.823 249.979 155.5 260.298C161.742 268.714 168.575 276.714 176 284.298C176.483 285.246 176.649 286.246 176.5 287.298C169.137 289.002 162.137 288.169 155.5 284.798C143.546 273.184 132.713 260.684 123 247.298C122.192 245.375 121.692 243.375 121.5 241.298C122.599 232.212 126.099 224.212 132 217.298C137.062 212.067 142.229 207.067 147.5 202.298Z" fill="#69B1F0"/>
<path fill-rule="evenodd" clip-rule="evenodd" d="M147.5 205.298C149.017 205.309 150.184 205.975 151 207.298C158.18 215.809 165.347 224.309 172.5 232.798C163.714 241.254 156.881 251.088 152 262.298C150.97 266.571 150.303 270.904 150 275.298C142.333 266.965 134.667 258.631 127 250.298C124.657 245.196 123.99 239.862 125 234.298C129.691 222.442 137.191 212.775 147.5 205.298Z" fill="#FCFCFD"/>
<path fill-rule="evenodd" clip-rule="evenodd" d="M150.5 237.298C155.493 237.795 156.493 239.962 153.5 243.798C148.148 243.973 147.148 241.807 150.5 237.298Z" fill="#FB8179"/>
<path fill-rule="evenodd" clip-rule="evenodd" d="M150.5 239.298C151.5 239.298 152.5 239.298 153.5 239.298C153.426 243.339 152.093 244.006 149.5 241.298C149.863 240.615 150.196 239.948 150.5 239.298Z" fill="#FFEFED"/>
<path fill-rule="evenodd" clip-rule="evenodd" d="M144.5 223.298C145.586 223.418 146.253 224.085 146.5 225.298C145.18 233.692 143.68 242.026 142 250.298C142.253 241.267 143.087 232.267 144.5 223.298Z" fill="#FC8C84"/>
<path fill-rule="evenodd" clip-rule="evenodd" d="M134.5 232.298C139.747 232.438 140.747 234.604 137.5 238.798C132.148 238.973 131.148 236.807 134.5 232.298Z" fill="#FB7970"/>
<path fill-rule="evenodd" clip-rule="evenodd" d="M135.5 233.298C138.063 234.796 138.063 236.463 135.5 238.298C133.07 236.761 133.07 235.094 135.5 233.298Z" fill="#FFE5E4"/>
<path fill-rule="evenodd" clip-rule="evenodd" d="M90.5 300.298C90.4199 305.958 88.0866 310.458 83.5 313.798C73.9244 314.743 66.9244 319.41 62.5 327.798C48.5063 333.459 38.0063 342.959 31 356.298C29.9207 358.861 29.4207 361.527 29.5 364.298C28.5 364.298 27.5 364.298 26.5 364.298C25.3871 362.852 25.2204 361.185 26 359.298C27.1956 354.575 29.1956 350.241 32 346.298C48.6667 327.631 65.3333 308.965 82 290.298C84.6686 293.798 87.502 297.131 90.5 300.298Z" fill="#F6F2F4"/>
<path fill-rule="evenodd" clip-rule="evenodd" d="M92.5 302.298C94.2659 304.569 96.2659 306.735 98.5 308.798C96.9315 311.102 95.7648 313.602 95 316.298C95.1356 322.59 93.6356 328.423 90.5 333.798C90.8333 333.965 91.1667 334.131 91.5 334.298C92.5836 333.133 93.4169 331.8 94 330.298C95.4298 325.053 96.4298 319.72 97 314.298C97.5232 312.575 98.5232 311.242 100 310.298C105.759 315.225 111.925 319.559 118.5 323.298C117.942 324.588 116.942 325.421 115.5 325.798C110.32 325.549 105.653 326.883 101.5 329.798C96.8203 335.37 91.8203 340.537 86.5 345.298C83.1667 347.631 79.8333 349.965 76.5 352.298C76.666 346.954 76.4994 341.621 76 336.298C74.8904 334.761 73.3904 334.095 71.5 334.298C74.1566 341.733 73.8232 349.066 70.5 356.298C69.5 356.965 68.5 357.631 67.5 358.298C68.4591 352.66 68.6258 346.993 68 341.298C67.5756 339.183 66.4089 338.35 64.5 338.798C64.9367 346.269 64.2701 353.769 62.5 361.298C61.1667 361.298 59.8333 361.298 58.5 361.298C59.5668 356.016 59.7335 350.683 59 345.298C57.9887 344.461 56.8221 344.128 55.5 344.298C55.9416 346.77 56.275 349.27 56.5 351.798C56.0054 356.109 55.0054 360.276 53.5 364.298C45.8501 364.941 38.1834 365.275 30.5 365.298C32.9492 353.24 39.2825 343.74 49.5 336.798C54.1667 334.131 58.8333 331.465 63.5 328.798C65.35 325.436 67.6833 322.436 70.5 319.798C81.9756 318.793 89.3089 312.959 92.5 302.298Z" fill="#FCFAF9"/>
<path fill-rule="evenodd" clip-rule="evenodd" d="M288.5 333.298C288.167 333.298 287.833 333.298 287.5 333.298C278.466 323.926 270.133 313.926 262.5 303.298C262.833 302.965 263.167 302.631 263.5 302.298C271.477 312.94 279.811 323.273 288.5 333.298Z" fill="#FB9993"/>
<path opacity="0.999" fill-rule="evenodd" clip-rule="evenodd" d="M120.5 322.298C123.618 324.191 126.951 325.524 130.5 326.298C126.63 337.044 122.464 347.711 118 358.298C117.303 360.382 116.136 362.049 114.5 363.298C105.372 358.232 96.3719 352.899 87.5 347.298C87.6716 346.306 87.3382 345.64 86.5 345.298C91.8203 340.537 96.8203 335.37 101.5 329.798C105.653 326.883 110.32 325.549 115.5 325.798C116.942 325.421 117.942 324.588 118.5 323.298C119.492 323.47 120.158 323.136 120.5 322.298Z" fill="#68B0EF"/>
<path opacity="0.999" fill-rule="evenodd" clip-rule="evenodd" d="M133.5 327.298C137.538 327.756 141.538 328.422 145.5 329.298C140.686 343.575 135.353 357.575 129.5 371.298C125.008 369.701 121.008 367.368 117.5 364.298C123.072 352.145 128.406 339.812 133.5 327.298Z" fill="#6BB1EF"/>
<path opacity="0.991" fill-rule="evenodd" clip-rule="evenodd" d="M145.5 329.298C151.489 330.058 157.489 330.725 163.5 331.298C162.925 333.209 161.925 334.876 160.5 336.298C156.059 341.508 152.893 347.508 151 354.298C148.831 362.653 147.331 370.987 146.5 379.298C143.807 378.246 141.14 377.246 138.5 376.298C135.304 374.869 132.304 373.203 129.5 371.298C135.353 357.575 140.686 343.575 145.5 329.298Z" fill="#F9B5B1"/>
<path fill-rule="evenodd" clip-rule="evenodd" d="M90.5 300.298C91.5 300.631 92.1667 301.298 92.5 302.298C89.3089 312.959 81.9756 318.793 70.5 319.798C67.6833 322.436 65.35 325.436 63.5 328.798C58.8333 331.465 54.1667 334.131 49.5 336.798C39.2825 343.74 32.9492 353.24 30.5 365.298C28.901 365.566 27.5676 365.232 26.5 364.298C27.5 364.298 28.5 364.298 29.5 364.298C29.4207 361.527 29.9207 358.861 31 356.298C38.0063 342.959 48.5063 333.459 62.5 327.798C66.9244 319.41 73.9244 314.743 83.5 313.798C88.0866 310.458 90.4199 305.958 90.5 300.298Z" fill="#855C77"/>
<path fill-rule="evenodd" clip-rule="evenodd" d="M76.5 352.298C75.8902 353.189 75.5569 354.189 75.5 355.298C75.3059 357.71 73.9726 358.71 71.5 358.298C71.1667 357.631 70.8333 356.965 70.5 356.298C73.8232 349.066 74.1566 341.733 71.5 334.298C73.3904 334.095 74.8904 334.761 76 336.298C76.4994 341.621 76.666 346.954 76.5 352.298Z" fill="#FDCF38"/>
<path opacity="0.459" fill-rule="evenodd" clip-rule="evenodd" d="M120.5 322.298C120.158 323.136 119.492 323.47 118.5 323.298C111.925 319.559 105.759 315.225 100 310.298C98.5232 311.242 97.5232 312.575 97 314.298C96.4298 319.72 95.4298 325.053 94 330.298C93.4169 331.8 92.5836 333.133 91.5 334.298C91.1667 334.131 90.8333 333.965 90.5 333.798C93.6356 328.423 95.1356 322.59 95 316.298C95.7648 313.602 96.9315 311.102 98.5 308.798C96.2659 306.735 94.2659 304.569 92.5 302.298C92.1667 301.298 91.5 300.631 90.5 300.298C87.502 297.131 84.6686 293.798 82 290.298C65.3333 308.965 48.6667 327.631 32 346.298C29.1956 350.241 27.1956 354.575 26 359.298C25.2204 361.185 25.3871 362.852 26.5 364.298C27.5676 365.232 28.901 365.566 30.5 365.298C38.1834 365.275 45.8501 364.941 53.5 364.298C53.5 364.965 53.5 365.631 53.5 366.298C48.3347 366.909 43.168 367.575 38 368.298C33.481 367.694 28.981 367.027 24.5 366.298C23.4915 357.993 25.6581 350.66 31 344.298C47.5394 326.094 63.7061 307.594 79.5 288.798C80.8333 288.131 82.1667 288.131 83.5 288.798C94.191 301.999 106.524 313.166 120.5 322.298Z" fill="#602C4E"/>
<path fill-rule="evenodd" clip-rule="evenodd" d="M83.5 300.298C85.4237 307.08 82.757 311.08 75.5 312.298C70.5123 309.977 70.179 306.977 74.5 303.298C72.6773 312.199 75.1773 313.532 82 307.298C82.977 305.058 83.477 302.725 83.5 300.298Z" fill="#8A627B"/>
<path fill-rule="evenodd" clip-rule="evenodd" d="M83.5 300.298C83.477 302.725 82.977 305.058 82 307.298C75.1773 313.532 72.6773 312.199 74.5 303.298C76.9966 300.927 79.9966 299.927 83.5 300.298Z" fill="#F6F3F5"/>
<path fill-rule="evenodd" clip-rule="evenodd" d="M83.5 300.298C79.9966 299.927 76.9966 300.927 74.5 303.298C76.0986 299.86 78.7653 298.36 82.5 298.798C83.056 299.181 83.3893 299.681 83.5 300.298Z" fill="#89617B"/>
<path fill-rule="evenodd" clip-rule="evenodd" d="M203.5 338.298C210.873 340.818 217.873 344.151 224.5 348.298C224.167 348.631 223.833 348.965 223.5 349.298C216.727 345.615 210.06 341.948 203.5 338.298Z" fill="#FB9791"/>
<path fill-rule="evenodd" clip-rule="evenodd" d="M130.5 326.298C131.391 326.908 132.391 327.241 133.5 327.298C128.406 339.812 123.072 352.145 117.5 364.298C116.209 364.535 115.209 364.202 114.5 363.298C116.136 362.049 117.303 360.382 118 358.298C122.464 347.711 126.63 337.044 130.5 326.298Z" fill="#EBF4FC"/>
<path fill-rule="evenodd" clip-rule="evenodd" d="M67.5 358.298C66.596 359.007 66.2627 360.007 66.5 361.298C65.5326 362.604 64.1993 363.271 62.5 363.298C62.5 362.631 62.5 361.965 62.5 361.298C64.2701 353.769 64.9367 346.269 64.5 338.798C66.4089 338.35 67.5756 339.183 68 341.298C68.6258 346.993 68.4591 352.66 67.5 358.298Z" fill="#FED03E"/>
<path opacity="0.886" fill-rule="evenodd" clip-rule="evenodd" d="M86.5 345.298C87.3382 345.64 87.6716 346.306 87.5 347.298C83.7771 350.349 79.7771 353.016 75.5 355.298C75.5569 354.189 75.8902 353.189 76.5 352.298C79.8333 349.965 83.1667 347.631 86.5 345.298Z" fill="#642E50"/>
<path fill-rule="evenodd" clip-rule="evenodd" d="M160.5 336.298C158.073 341.335 156.573 346.669 156 352.298C155.237 363.034 155.737 373.701 157.5 384.298C153.599 383.042 149.932 381.375 146.5 379.298C147.331 370.987 148.831 362.653 151 354.298C152.893 347.508 156.059 341.508 160.5 336.298Z" fill="#9E4082"/>
<path opacity="0.945" fill-rule="evenodd" clip-rule="evenodd" d="M473.5 293.298C474.552 293.149 475.552 293.315 476.5 293.798C487.324 304.265 493.991 316.931 496.5 331.798C495.953 337.699 493.619 342.699 489.5 346.798C478.833 355.465 468.167 364.131 457.5 372.798C450.182 376.061 442.849 376.061 435.5 372.798C434.549 372.08 434.383 371.247 435 370.298C441.833 364.798 448.667 359.298 455.5 353.798C457.677 352.301 459.01 350.301 459.5 347.798C456.698 336.905 451.364 327.405 443.5 319.298C453.531 310.624 463.531 301.957 473.5 293.298Z" fill="#6AB1F0"/>
<path fill-rule="evenodd" clip-rule="evenodd" d="M473.5 296.298C476.263 296.542 478.429 297.875 480 300.298C484.795 306.44 488.795 313.107 492 320.298C493.406 326.24 493.739 332.24 493 338.298C491.692 340.439 490.192 342.439 488.5 344.298C479.854 351.109 471.354 358.109 463 365.298C464.167 347.636 458.667 332.303 446.5 319.298C455.757 311.85 464.757 304.184 473.5 296.298Z" fill="#FCFCFD"/>
<path fill-rule="evenodd" clip-rule="evenodd" d="M480.5 333.298C478.843 329.442 480.176 327.609 484.5 327.798C487.388 330.97 486.722 333.137 482.5 334.298C481.584 334.255 480.917 333.922 480.5 333.298Z" fill="#FB817A"/>
<path fill-rule="evenodd" clip-rule="evenodd" d="M480.5 333.298C480.167 330.298 481.5 328.965 484.5 329.298C484.833 332.298 483.5 333.631 480.5 333.298Z" fill="#FEF1F0"/>
<path fill-rule="evenodd" clip-rule="evenodd" d="M464.5 325.298C465.204 323.454 466.537 322.954 468.5 323.798C470.833 329.131 469.167 331.131 463.5 329.798C461.957 327.753 462.29 326.253 464.5 325.298Z" fill="#FC857D"/>
<path fill-rule="evenodd" clip-rule="evenodd" d="M464.5 325.298C465.833 325.298 467.167 325.298 468.5 325.298C468.833 328.298 467.5 329.631 464.5 329.298C464.5 327.965 464.5 326.631 464.5 325.298Z" fill="#FFEDEB"/>
<path fill-rule="evenodd" clip-rule="evenodd" d="M473.5 313.298C474.777 314.492 475.444 316.158 475.5 318.298C475.018 325.981 474.351 333.647 473.5 341.298C473.179 332.011 473.179 322.677 473.5 313.298Z" fill="#FC8A83"/>
<path opacity="0.286" fill-rule="evenodd" clip-rule="evenodd" d="M70.5 356.298C70.8333 356.965 71.1667 357.631 71.5 358.298C69.6675 359.046 68.0009 360.046 66.5 361.298C66.2627 360.007 66.596 359.007 67.5 358.298C68.5 357.631 69.5 356.965 70.5 356.298Z" fill="#5F2448"/>
<path opacity="0.813" fill-rule="evenodd" clip-rule="evenodd" d="M58.5 361.298C57.8902 362.189 57.5569 363.189 57.5 364.298C56.713 365.902 55.3797 366.569 53.5 366.298C53.5 365.631 53.5 364.965 53.5 364.298C55.0054 360.276 56.0054 356.109 56.5 351.798C56.275 349.27 55.9416 346.77 55.5 344.298C56.8221 344.128 57.9887 344.461 59 345.298C59.7335 350.683 59.5668 356.016 58.5 361.298Z" fill="#FCCD34"/>
<path opacity="0.404" fill-rule="evenodd" clip-rule="evenodd" d="M58.5 361.298C59.8333 361.298 61.1667 361.298 62.5 361.298C62.5 361.965 62.5 362.631 62.5 363.298C60.8828 363.836 59.2161 364.169 57.5 364.298C57.5569 363.189 57.8902 362.189 58.5 361.298Z" fill="#612D47"/>
<path opacity="0.981" fill-rule="evenodd" clip-rule="evenodd" d="M138.5 376.298C141.14 377.246 143.807 378.246 146.5 379.298C149.932 381.375 153.599 383.042 157.5 384.298C160.581 395.66 162.581 407.326 163.5 419.298C164.791 427.035 162.458 433.369 156.5 438.298C150.987 440.216 145.987 439.383 141.5 435.798C137.493 431.8 134.993 426.967 134 421.298C131.582 405.897 133.082 390.897 138.5 376.298Z" fill="#5B2447"/>
<path fill-rule="evenodd" clip-rule="evenodd" d="M346.5 399.298C345.833 399.298 345.5 398.965 345.5 398.298C346.717 391.806 347.717 385.14 348.5 378.298C349.549 385.555 348.882 392.555 346.5 399.298Z" fill="#FB9891"/>
<path opacity="0.959" fill-rule="evenodd" clip-rule="evenodd" d="M278.5 448.298C279.75 448.375 280.583 449.042 281 450.298C282.891 459.156 281.224 467.156 276 474.298C266.5 483.798 257 493.298 247.5 502.798C239.079 504.948 230.746 504.615 222.5 501.798C216.277 498.591 210.277 494.925 204.5 490.798C201.948 488.085 199.615 485.252 197.5 482.298C206.861 472.605 216.194 462.938 225.5 453.298C234.345 460.887 244.012 467.22 254.5 472.298C262.515 464.222 270.515 456.222 278.5 448.298Z" fill="#69B1F0"/>
<path opacity="0.981" fill-rule="evenodd" clip-rule="evenodd" d="M309.5 450.298C316.087 450.659 322.42 452.159 328.5 454.798C337.209 460.153 346.209 464.986 355.5 469.298C355.5 473.298 355.5 477.298 355.5 481.298C355.736 484.407 355.403 487.407 354.5 490.298C336.199 491.195 320.699 485.195 308 472.298C303.555 466.244 302.889 459.911 306 453.298C307.039 452.088 308.206 451.088 309.5 450.298Z" fill="#5B2347"/>
<path fill-rule="evenodd" clip-rule="evenodd" d="M224.5 456.298C233.667 463.382 243.333 469.716 253.5 475.298C256.139 499.168 246.139 507.335 223.5 499.798C214.482 495.597 206.815 489.764 200.5 482.298C208.89 473.912 216.89 465.245 224.5 456.298Z" fill="#FCFCFD"/>
<path fill-rule="evenodd" clip-rule="evenodd" d="M355.5 469.298C369.825 475.562 384.825 478.229 400.5 477.298C394.861 479.666 388.861 481.166 382.5 481.798C373.484 482.397 364.484 482.23 355.5 481.298C355.5 477.298 355.5 473.298 355.5 469.298Z" fill="#A04080"/>
<path opacity="0.996" fill-rule="evenodd" clip-rule="evenodd" d="M400.5 477.298C401.5 477.298 402.5 477.298 403.5 477.298C402.669 482.464 401.336 487.464 399.5 492.298C384.502 491.881 369.502 491.548 354.5 491.298C354.5 490.965 354.5 490.631 354.5 490.298C355.403 487.407 355.736 484.407 355.5 481.298C364.484 482.23 373.484 482.397 382.5 481.798C388.861 481.166 394.861 479.666 400.5 477.298Z" fill="#F8B4B0"/>
<path fill-rule="evenodd" clip-rule="evenodd" d="M238.5 478.298C241.352 478.15 243.019 479.484 243.5 482.298C241.167 487.631 238.833 487.631 236.5 482.298C236.752 480.725 237.418 479.392 238.5 478.298Z" fill="#FC8E87"/>
<path fill-rule="evenodd" clip-rule="evenodd" d="M238.5 480.298C239.5 480.298 240.5 480.298 241.5 480.298C241.5 481.631 241.5 482.965 241.5 484.298C240.5 484.298 239.5 484.298 238.5 484.298C238.5 482.965 238.5 481.631 238.5 480.298Z" fill="#FFF3F2"/>
<path fill-rule="evenodd" clip-rule="evenodd" d="M226.5 469.298C229.316 474.216 231.482 479.55 233 485.298C234.116 488.618 234.783 491.951 235 495.298C231.265 486.926 228.431 478.259 226.5 469.298Z" fill="#FC8880"/>
<path fill-rule="evenodd" clip-rule="evenodd" d="M221.5 482.298C222.696 479.817 224.196 479.817 226 482.298C226.852 486.781 225.186 488.448 221 487.298C220.22 485.411 220.387 483.744 221.5 482.298Z" fill="#FB7D75"/>
<path fill-rule="evenodd" clip-rule="evenodd" d="M221.5 482.298C223.346 482.02 224.68 482.687 225.5 484.298C224.68 485.909 223.346 486.576 221.5 486.298C221.5 484.965 221.5 483.631 221.5 482.298Z" fill="#FFEDEC"/>
<path opacity="0.999" fill-rule="evenodd" clip-rule="evenodd" d="M354.5 491.298C369.502 491.548 384.502 491.881 399.5 492.298C398.901 495.761 397.901 499.094 396.5 502.298C382.163 502.103 367.829 501.77 353.5 501.298C353.253 497.859 353.586 494.526 354.5 491.298Z" fill="#6EB2EF"/>
<path opacity="0.99" fill-rule="evenodd" clip-rule="evenodd" d="M353.5 501.298C367.829 501.77 382.163 502.103 396.5 502.298C396.672 503.29 396.338 503.956 395.5 504.298C381.492 504.221 367.492 503.887 353.5 503.298C353.5 502.631 353.5 501.965 353.5 501.298Z" fill="#F4F9FD"/>
<path opacity="0.999" fill-rule="evenodd" clip-rule="evenodd" d="M353.5 503.298C367.492 503.887 381.492 504.221 395.5 504.298C393.597 512.924 390.93 521.258 387.5 529.298C386.833 529.965 386.167 530.631 385.5 531.298C378.835 530.199 372.168 529.032 365.5 527.798C361.551 524.002 357.217 520.835 352.5 518.298C352.167 517.298 351.5 516.631 350.5 516.298C351.878 512.077 352.878 507.744 353.5 503.298Z" fill="#69B0EF"/>
<path fill-rule="evenodd" clip-rule="evenodd" d="M352.5 518.298C357.217 520.835 361.551 524.002 365.5 527.798C372.168 529.032 378.835 530.199 385.5 531.298C387.284 531.691 388.95 532.357 390.5 533.298C386.942 535.352 383.775 538.018 381 541.298C379.097 543.239 378.264 545.572 378.5 548.298C382.488 545.832 386.155 542.666 389.5 538.798C392.071 537.344 394.738 536.178 397.5 535.298C398.391 535.908 399.391 536.241 400.5 536.298C396.9 538.718 393.4 541.384 390 544.298C388.097 546.239 387.264 548.572 387.5 551.298C391.195 549.12 394.528 546.287 397.5 542.798C400.741 541.009 404.074 539.509 407.5 538.298C407.557 539.407 407.89 540.407 408.5 541.298C403.313 543.576 399.313 547.243 396.5 552.298C397.035 553.899 398.035 554.399 399.5 553.798C403.302 548.573 408.302 545.406 414.5 544.298C419.512 548.311 423.845 552.977 427.5 558.298C424.757 560.957 421.423 562.79 417.5 563.798C404.98 566.163 392.98 564.496 381.5 558.798C375.833 558.465 370.167 558.131 364.5 557.798C361.003 555.215 357.336 552.882 353.5 550.798C349.288 550.577 345.288 550.41 341.5 550.298C341.419 545.546 343.752 543.379 348.5 543.798C352.043 542.19 355.043 539.856 357.5 536.798C353.84 539.136 349.84 541.303 345.5 543.298C345.167 542.631 344.833 541.965 344.5 541.298C346.783 533.447 349.45 525.781 352.5 518.298Z" fill="#FBF9F9"/>
<path opacity="0.494" fill-rule="evenodd" clip-rule="evenodd" d="M387.5 529.298C389.421 530.161 391.421 530.827 393.5 531.298C393.027 532.704 392.027 533.371 390.5 533.298C388.95 532.357 387.284 531.691 385.5 531.298C386.167 530.631 386.833 529.965 387.5 529.298Z" fill="#68314D"/>
<path fill-rule="evenodd" clip-rule="evenodd" d="M364.5 531.298C365.978 531.036 367.311 531.369 368.5 532.298C365.912 533.516 363.245 534.016 360.5 533.798C362.066 533.19 363.4 532.356 364.5 531.298Z" fill="#8F6A81"/>
<path opacity="0.824" fill-rule="evenodd" clip-rule="evenodd" d="M399.5 533.298C400.833 533.965 402.167 534.631 403.5 535.298C402.791 536.202 401.791 536.535 400.5 536.298C399.391 536.241 398.391 535.908 397.5 535.298C397.833 534.298 398.5 533.631 399.5 533.298Z" fill="#622A51"/>
<path opacity="0.525" fill-rule="evenodd" clip-rule="evenodd" d="M407.5 538.298C407.833 538.298 408.167 538.298 408.5 538.298C410.027 538.225 411.027 538.892 411.5 540.298C410.791 541.202 409.791 541.535 408.5 541.298C407.89 540.407 407.557 539.407 407.5 538.298Z" fill="#603050"/>
<path fill-rule="evenodd" clip-rule="evenodd" d="M403.5 535.298C406.285 534.714 407.952 535.714 408.5 538.298C408.167 538.298 407.833 538.298 407.5 538.298C404.074 539.509 400.741 541.009 397.5 542.798C394.528 546.287 391.195 549.12 387.5 551.298C387.264 548.572 388.097 546.239 390 544.298C393.4 541.384 396.9 538.718 400.5 536.298C401.791 536.535 402.791 536.202 403.5 535.298Z" fill="#FDCF3A"/>
<path fill-rule="evenodd" clip-rule="evenodd" d="M393.5 531.298C396.01 530.852 398.01 531.518 399.5 533.298C398.5 533.631 397.833 534.298 397.5 535.298C394.738 536.178 392.071 537.344 389.5 538.798C386.155 542.666 382.488 545.832 378.5 548.298C378.264 545.572 379.097 543.239 381 541.298C383.775 538.018 386.942 535.352 390.5 533.298C392.027 533.371 393.027 532.704 393.5 531.298Z" fill="#FED243"/>
<path fill-rule="evenodd" clip-rule="evenodd" d="M416.5 543.298C415.508 543.126 414.842 543.46 414.5 544.298C408.302 545.406 403.302 548.573 399.5 553.798C398.035 554.399 397.035 553.899 396.5 552.298C399.313 547.243 403.313 543.576 408.5 541.298C409.791 541.535 410.791 541.202 411.5 540.298C414.808 538.514 416.475 539.514 416.5 543.298Z" fill="#FED23E"/>
<path fill-rule="evenodd" clip-rule="evenodd" d="M429.5 564.298C424.924 567.213 419.924 569.046 414.5 569.798C388.496 570.317 362.496 570.15 336.5 569.298C337.003 563.463 338.67 558.129 341.5 553.298C345.747 552.196 350.08 552.03 354.5 552.798C357.672 554.55 360.672 556.55 363.5 558.798C369.167 559.131 374.833 559.465 380.5 559.798C396.509 568.185 412.509 568.352 428.5 560.298C429.429 561.487 429.762 562.82 429.5 564.298Z" fill="#F7F4F6"/>
<path opacity="0.78" fill-rule="evenodd" clip-rule="evenodd" d="M416.5 543.298C422.256 547.718 426.922 553.051 430.5 559.298C429.391 559.241 428.391 558.908 427.5 558.298C423.845 552.977 419.512 548.311 414.5 544.298C414.842 543.46 415.508 543.126 416.5 543.298Z" fill="#612A4E"/>
<path fill-rule="evenodd" clip-rule="evenodd" d="M343.5 559.298C346.975 555.89 350.975 555.39 355.5 557.798C359.5 560.465 359.5 563.131 355.5 565.798C349.203 568.821 344.536 567.321 341.5 561.298C341.747 560.085 342.414 559.418 343.5 559.298Z" fill="#8B647E"/>
<path fill-rule="evenodd" clip-rule="evenodd" d="M343.5 559.298C347.112 558.287 350.779 558.12 354.5 558.798C357.326 561.32 356.993 563.32 353.5 564.798C350.833 565.465 348.167 565.465 345.5 564.798C343.845 563.354 343.178 561.52 343.5 559.298Z" fill="#F9F7F9"/>
<path fill-rule="evenodd" clip-rule="evenodd" d="M341.5 550.298C345.288 550.41 349.288 550.577 353.5 550.798C357.336 552.882 361.003 555.215 364.5 557.798C370.167 558.131 375.833 558.465 381.5 558.798C392.98 564.496 404.98 566.163 417.5 563.798C421.423 562.79 424.757 560.957 427.5 558.298C428.391 558.908 429.391 559.241 430.5 559.298C430.5 559.631 430.5 559.965 430.5 560.298C430.768 561.897 430.434 563.23 429.5 564.298C429.762 562.82 429.429 561.487 428.5 560.298C412.509 568.352 396.509 568.185 380.5 559.798C374.833 559.465 369.167 559.131 363.5 558.798C360.672 556.55 357.672 554.55 354.5 552.798C350.08 552.03 345.747 552.196 341.5 553.298C340.375 552.146 340.375 551.146 341.5 550.298Z" fill="#88607A"/>
<path opacity="0.92" fill-rule="evenodd" clip-rule="evenodd" d="M350.5 516.298C351.5 516.631 352.167 517.298 352.5 518.298C349.45 525.781 346.783 533.447 344.5 541.298C344.833 541.965 345.167 542.631 345.5 543.298C349.84 541.303 353.84 539.136 357.5 536.798C355.043 539.856 352.043 542.19 348.5 543.798C343.752 543.379 341.419 545.546 341.5 550.298C340.375 551.146 340.375 552.146 341.5 553.298C338.67 558.129 337.003 563.463 336.5 569.298C362.496 570.15 388.496 570.317 414.5 569.798C419.924 569.046 424.924 567.213 429.5 564.298C430.434 563.23 430.768 561.897 430.5 560.298C431.695 560.664 432.361 561.497 432.5 562.798C431.561 564.742 430.227 566.409 428.5 567.798C424.714 569.628 420.714 570.961 416.5 571.798C393.16 572.507 369.827 572.34 346.5 571.298C340.33 571.016 334.33 571.85 328.5 573.798C317.366 574.913 306.366 574.247 295.5 571.798C290.167 569.131 290.167 566.465 295.5 563.798C308.787 560.633 322.121 560.467 335.5 563.298C339.893 547.451 344.893 531.785 350.5 516.298Z" fill="#5D274A"/>
</svg>
