<svg width="260" height="248" viewBox="0 0 260 248" fill="none" xmlns="http://www.w3.org/2000/svg">
<g clip-path="url(#clip0_50_9)">
<path opacity="0.998" fill-rule="evenodd" clip-rule="evenodd" d="M181.223 93.064C180.988 93.064 180.752 93.064 180.516 93.064C181.367 79.4847 177.481 67.4737 168.859 57.0314C172.503 67.0363 172.032 76.9278 167.446 86.7053C164.836 90.9664 161.185 93.9097 156.495 95.5368C121.943 102.658 88.0298 112.078 54.7554 123.798C37.1082 128.456 24.744 122.45 17.6631 105.781C12.1621 93.0103 13.6929 81.2347 22.2554 70.4553C22.1377 70.2198 22.02 69.9843 21.9022 69.7488C20.2864 70.8467 18.7557 72.0245 17.3098 73.2814C17.3098 72.8102 17.3098 72.3396 17.3098 71.8684C22.6781 67.4165 28.8012 64.2372 35.6794 62.3303C64.202 55.3763 92.6985 48.3111 121.168 41.1347C146.336 36.5599 165.059 45.3915 177.337 67.6292C180.986 75.8722 182.282 84.3505 181.223 93.064Z" fill="#1B57B8"/>
<path opacity="0.995" fill-rule="evenodd" clip-rule="evenodd" d="M217.962 -0.196777C219.61 -0.196777 221.259 -0.196777 222.908 -0.196777C224.598 1.38305 225.894 3.26711 226.793 5.4554C228.205 17.4188 228.912 29.4297 228.913 41.488C230.482 37.171 232.602 33.1674 235.272 29.4771C238.477 26.6784 241.656 26.6784 244.81 29.4771C245.208 30.4935 245.444 31.5533 245.516 32.6565C244.714 36.4677 243.654 40.1181 242.337 43.6076C244.364 41.3438 246.601 39.342 249.049 37.6021C255.312 36.3052 258.021 38.778 257.174 45.0206C255.879 46.7869 254.583 48.5532 253.288 50.3195C255.814 50.6404 257.933 51.7002 259.647 53.4989C259.647 55.383 259.647 57.267 259.647 59.1511C254.987 63.6039 249.806 67.3721 244.103 70.4554C242.048 82.06 235.219 87.3589 223.614 86.3521C220.738 84.7957 217.677 83.8539 214.429 83.526C208.251 79.5158 204.247 73.9817 202.418 66.9228C202.664 64.7837 203.488 62.8996 204.891 61.2706C207.751 58.645 210.813 56.2899 214.076 54.2054C218.272 38.0311 219.097 21.6634 216.549 5.10214C216.41 3.10657 216.88 1.34027 217.962 -0.196777Z" fill="#2059B9"/>
<path fill-rule="evenodd" clip-rule="evenodd" d="M249.755 38.662C253.296 37.8346 255.415 39.13 256.114 42.5479C254.055 47.4455 250.875 51.5669 246.576 54.912C245.363 51.3432 242.89 49.3414 239.158 48.9066C242.616 45.3288 246.149 41.9139 249.755 38.662Z" fill="#FAFBFD"/>
<path fill-rule="evenodd" clip-rule="evenodd" d="M238.451 28.7705C241.801 28.1924 243.686 29.4877 244.103 32.6564C242.661 37.9205 240.66 42.984 238.098 47.8466C236.217 44.8398 233.509 42.9558 229.973 42.1944C231.943 37.0514 234.769 32.5768 238.451 28.7705Z" fill="#F9FAFD"/>
<path fill-rule="evenodd" clip-rule="evenodd" d="M222.201 24.5315C223.678 24.4032 225.091 24.6387 226.44 25.238C227.395 33.0299 227.277 40.8016 226.087 48.5532C222.857 49.9915 219.678 51.6401 216.549 53.4989C216.314 53.1456 216.078 52.7924 215.842 52.4391C217.903 43.9656 219.198 35.3696 219.728 26.6511C220.537 25.8482 221.362 25.1416 222.201 24.5315Z" fill="#F6F8FC"/>
<path fill-rule="evenodd" clip-rule="evenodd" d="M252.582 52.0857C257.084 51.9923 258.851 54.1118 257.88 58.4444C255.446 61.3046 252.62 63.6597 249.402 65.5096C249.457 62.0793 247.926 59.7242 244.81 58.4444C247.32 56.1426 249.911 54.023 252.582 52.0857Z" fill="#F8F9FC"/>
<path fill-rule="evenodd" clip-rule="evenodd" d="M107.745 59.1511C116.565 59.8374 122.1 64.5476 124.348 73.2816C124.819 76.5789 124.819 79.8755 124.348 83.1729C122.553 86.401 119.844 87.4607 116.223 86.3522C107.362 81.2313 103.476 73.5769 104.565 63.3903C105.506 61.8642 106.566 60.4511 107.745 59.1511Z" fill="#51FCFC"/>
<path fill-rule="evenodd" clip-rule="evenodd" d="M180.516 93.0641C177.542 111.381 167.651 124.452 150.842 132.276C118.453 141.904 85.9533 151.089 53.3424 159.83C24.7209 159.952 7.41114 145.939 1.41305 117.792C-1.17313 99.9894 4.12579 85.1525 17.3098 73.2815C18.7557 72.0246 20.2864 70.8468 21.9022 69.7489C22.02 69.9844 22.1377 70.2199 22.2554 70.4554C13.6929 81.2348 12.1621 93.0104 17.6631 105.781C24.744 122.45 37.1082 128.456 54.7554 123.798C88.0298 112.078 121.943 102.658 156.495 95.5369C161.185 93.9098 164.836 90.9664 167.446 86.7054C172.032 76.9279 172.503 67.0364 168.859 57.0315C177.481 67.4738 181.367 79.4848 180.516 93.0641Z" fill="#FDFDFE"/>
<path fill-rule="evenodd" clip-rule="evenodd" d="M214.429 66.9229C219.649 69.5937 222.122 73.8327 221.848 79.6403C220.788 81.0314 219.493 81.9732 217.962 82.4664C216.762 82.5794 215.584 82.4621 214.429 82.1131C209.715 78.4413 206.3 73.8489 204.185 68.3359C204.01 64.6879 205.541 61.8619 208.777 59.8577C209.8 61.3885 210.625 63.037 211.25 64.8033C212.148 65.7801 213.208 66.4866 214.429 66.9229Z" fill="#F9FAFD"/>
<path fill-rule="evenodd" clip-rule="evenodd" d="M220.081 83.1729C224.352 79.5781 224.705 75.575 221.141 71.162C219.399 69.5666 217.868 67.9181 216.549 66.2164C219.717 65.1706 222.543 63.5221 225.027 61.2707C226.999 62.3586 228.765 62.1231 230.326 60.5642C230.561 61.9773 230.797 63.3903 231.033 64.8033C232.549 65.2361 234.081 65.7071 235.625 66.2164C234.491 68.3927 234.962 70.159 237.038 71.5153C238.641 72.0508 240.172 71.9328 241.63 71.162C240.165 81.9824 233.924 86.5748 222.908 84.9392C221.859 84.4715 220.917 83.8823 220.081 83.1729Z" fill="#FBFCFD"/>
<path fill-rule="evenodd" clip-rule="evenodd" d="M216.549 66.2163C217.868 67.918 219.399 69.5666 221.141 71.162C224.705 75.5749 224.352 79.578 220.081 83.1728C219.452 82.7419 218.745 82.5066 217.962 82.4663C219.493 81.9732 220.788 81.0314 221.848 79.6402C222.122 73.8326 219.649 69.5937 214.429 66.9228C215.213 66.8826 215.919 66.6471 216.549 66.2163Z" fill="#4F78C6"/>
<path fill-rule="evenodd" clip-rule="evenodd" d="M74.5381 68.3359C78.1929 68.4548 80.901 70.1034 82.6631 73.2816C85.9265 80.3277 85.9265 87.3929 82.6631 94.4772C78.8825 99.7613 74.8793 99.9966 70.6522 95.1838C66.1916 86.7557 66.4271 78.5127 71.3587 70.4555C72.5259 69.8201 73.5857 69.1135 74.5381 68.3359Z" fill="#51FBFC"/>
<path opacity="0.614" fill-rule="evenodd" clip-rule="evenodd" d="M201.712 97.3032C223.394 99.2186 229.165 109.816 219.022 129.097C208.428 144.882 193.591 153.831 174.511 155.945C172.225 155.887 169.988 155.533 167.799 154.885C165.474 153.237 165.12 151.236 166.739 148.879C177.109 139.695 184.88 128.626 190.054 115.673C191.704 110.955 193.352 106.244 195 101.542C197.009 99.6609 199.245 98.2478 201.712 97.3032Z" fill="#295DBA"/>
<path fill-rule="evenodd" clip-rule="evenodd" d="M201.005 98.7163C210.033 97.7555 216.981 101.053 221.848 108.608C223.107 115.326 221.93 121.685 218.315 127.684C206.525 145.765 189.922 154.361 168.505 153.472C167.297 152.671 166.943 151.611 167.446 150.292C181.715 137.554 191.135 121.775 195.707 102.955C197.2 101.104 198.966 99.6906 201.005 98.7163Z" fill="#FCFDFE"/>
<path opacity="0.6" fill-rule="evenodd" clip-rule="evenodd" d="M17.3098 71.8684C17.3098 72.3397 17.3098 72.8102 17.3098 73.2815C4.12577 85.1524 -1.17315 99.9894 1.41303 117.792C7.41112 145.939 24.7209 159.952 53.3424 159.83C85.9533 151.089 118.453 141.904 150.842 132.276C167.651 124.452 177.542 111.381 180.516 93.0641C180.752 93.0641 180.988 93.0641 181.223 93.0641C179.401 109.604 171.393 122.203 157.201 130.863C149.207 134.391 140.964 137.217 132.473 139.341C106.206 147.085 79.8292 154.386 53.3424 161.243C23.7338 161.188 5.8353 146.705 -0.353271 117.792C-0.353271 112.14 -0.353271 106.488 -0.353271 100.836C2.10098 89.0998 7.98863 79.4437 17.3098 71.8684Z" fill="#3060BC"/>
<path opacity="0.995" fill-rule="evenodd" clip-rule="evenodd" d="M133.179 247.086C129.882 247.086 126.585 247.086 123.288 247.086C96.9023 235.932 81.83 216.031 78.0706 187.385C77.5846 177.283 81.8237 169.982 90.788 165.483C108.173 156.494 126.543 153.433 145.897 156.298C150.126 157.293 153.776 159.295 156.848 162.303C166.021 176.843 168.141 192.386 163.207 208.934C159.386 221.693 152.674 232.645 143.071 241.787C140.014 244.138 136.718 245.904 133.179 247.086Z" fill="#2058B8"/>
<path fill-rule="evenodd" clip-rule="evenodd" d="M152.962 160.89C158.832 166.979 162.483 174.279 163.913 182.792C165.667 205.799 158.249 225.228 141.658 241.08C132.273 247.199 122.853 247.199 113.397 241.08C89.5587 226.022 78.8436 204.473 81.25 176.434C83.8945 171.633 87.7804 168.218 92.9076 166.189C97.6816 166.8 102.156 168.449 106.332 171.135C114.61 177.765 123.088 184.124 131.766 190.211C139.201 196.045 145.678 195.221 151.196 187.738C156.495 179.031 157.083 170.081 152.962 160.89Z" fill="#FDFDFE"/>
</g>
<defs>
<clipPath id="clip0_50_9">
<rect width="260" height="247.283" fill="white" transform="translate(0 0.156494)"/>
</clipPath>
</defs>
</svg>
