<svg width="169" height="60" viewBox="0 0 169 60" fill="none" xmlns="http://www.w3.org/2000/svg">
<g clip-path="url(#clip0_11_26)">
<path opacity="0.831" fill-rule="evenodd" clip-rule="evenodd" d="M36.7219 6.12166C38.1739 5.73866 39.3786 6.14024 40.3362 7.32638C40.8102 12.5499 38.5947 15.9928 33.6898 17.6552C33.1149 15.8357 32.8035 13.9721 32.7556 12.0645C33.9517 9.91941 35.2738 7.93848 36.7219 6.12166Z" fill="#596627"/>
<path opacity="0.854" fill-rule="evenodd" clip-rule="evenodd" d="M31.1178 20.7687C30.5944 20.8951 30.3959 21.22 30.5222 21.7434C29.9988 21.8698 29.8003 22.1946 29.9266 22.7181C27.2793 22.6215 25.56 21.2362 24.769 18.5623C24.4259 15.8779 24.9358 13.4006 26.2985 11.1305C26.6766 10.0329 27.3308 9.87495 28.2614 10.6567C30.4246 13.7031 31.3767 17.0738 31.1178 20.7687Z" fill="#5C6627"/>
<path opacity="0.838" fill-rule="evenodd" clip-rule="evenodd" d="M26.3259 31.8962C25.8025 32.0226 25.604 32.3474 25.7303 32.8709C24.2199 34.4416 22.9158 34.2025 21.8181 32.1535C19.4962 28.1088 19.8526 24.4222 22.8874 21.0938C25.9366 24.2406 27.0828 27.8415 26.3259 31.8962Z" fill="#596428"/>
<path opacity="0.835" fill-rule="evenodd" clip-rule="evenodd" d="M33.4462 23.5302C33.9697 23.4039 34.1682 23.079 34.0418 22.5556C34.5653 22.4292 34.7638 22.1043 34.6374 21.5809C37.3608 19.1515 40.5735 17.5451 44.2756 16.7616C43.6204 22.8277 40.2001 25.8691 34.0148 25.8857C33.8253 25.1005 33.6357 24.3154 33.4462 23.5302Z" fill="#596227"/>
<path opacity="0.694" fill-rule="evenodd" clip-rule="evenodd" d="M34.6375 21.5809C34.114 21.7072 33.9155 22.0321 34.0419 22.5556C33.5184 22.6819 33.3199 23.0068 33.4462 23.5302C31.7633 25.9933 30.7616 28.7278 30.4412 31.7337C29.9177 31.86 29.7192 32.1849 29.8456 32.7083C29.3221 32.8347 29.1236 33.1596 29.25 33.683C28.6566 34.1102 28.5212 34.6968 28.8439 35.4428C27.641 37.421 26.7747 39.5689 26.2449 41.8865C25.7215 42.0128 25.5229 42.3377 25.6493 42.8611C25.1259 42.9875 24.9273 43.3124 25.0537 43.8358C24.2758 45.5417 23.283 47.1661 22.0757 48.7092C21.3829 48.6208 20.7647 48.3546 20.2211 47.9105C21.0657 46.6507 21.5665 45.2835 21.7236 43.8088C22.317 43.3816 22.4524 42.795 22.1297 42.049C24.0413 39.2819 25.2415 36.2225 25.7304 32.8709C26.2538 32.7445 26.4523 32.4196 26.326 31.8962C28.2376 29.1291 29.4378 26.0697 29.9266 22.7181C30.4501 22.5917 30.6486 22.2669 30.5222 21.7434C31.0457 21.617 31.2442 21.2922 31.1178 20.7687C32.6031 18.1418 33.7762 18.4125 34.6375 21.5809Z" fill="#946C4A"/>
<path opacity="0.85" fill-rule="evenodd" clip-rule="evenodd" d="M22.1297 42.049C21.5363 42.4761 21.4009 43.0628 21.7236 43.8088C20.9254 43.9302 20.3343 44.3499 19.9503 45.0678C15.3676 41.7526 14.5192 37.6644 17.4051 32.8033C17.9278 32.1058 18.4828 32.1103 19.0701 32.8168C20.0588 34.3545 20.9928 35.9292 21.8724 37.5412C22.1446 38.9827 22.2303 40.4853 22.1297 42.049Z" fill="#596426"/>
<path opacity="0.8" fill-rule="evenodd" clip-rule="evenodd" d="M28.8439 35.4428C29.4372 35.0157 29.5726 34.429 29.25 33.683C29.7734 33.5567 29.9719 33.2318 29.8456 32.7084C30.369 32.582 30.5676 32.2571 30.4412 31.7337C33.5922 28.8769 36.8636 28.0872 40.2554 29.3645C38.0887 34.9289 34.2849 36.955 28.8439 35.4428Z" fill="#596627"/>
<path opacity="0.793" fill-rule="evenodd" clip-rule="evenodd" d="M25.0537 43.8358C25.5772 43.7094 25.7757 43.3846 25.6493 42.8611C26.1728 42.7348 26.3713 42.4099 26.2449 41.8865C28.9297 40.4553 31.7138 39.3678 34.5972 38.6239C35.0348 38.8623 35.3912 39.1917 35.6666 39.6121C34.6945 44.9979 31.4411 47.5835 25.9066 47.3689C24.9216 46.4319 24.6373 45.2542 25.0537 43.8358Z" fill="#5C6628"/>
</g>
<path d="M60.1675 20.299H71.6475V23.827H64.0875V28.223H71.5075V31.639H64.0875V36.371H71.7035V39.899H60.1675V20.299ZM80.8589 40.263C79.4962 40.263 78.2362 39.927 77.0789 39.255C75.9402 38.5643 75.0349 37.631 74.3629 36.455C73.6909 35.279 73.3549 34.0003 73.3549 32.619C73.3549 31.219 73.6909 29.9403 74.3629 28.783C75.0349 27.607 75.9682 26.683 77.1629 26.011C78.3575 25.3203 79.6922 24.975 81.1669 24.975C82.4549 24.975 83.6122 25.2176 84.6389 25.703C85.6655 26.1696 86.4869 26.8323 87.1029 27.691L84.1909 30.071C83.8549 29.567 83.4162 29.1656 82.8749 28.867C82.3335 28.5683 81.7455 28.419 81.1109 28.419C80.3269 28.419 79.6362 28.615 79.0389 29.007C78.4415 29.3803 77.9749 29.8843 77.6389 30.519C77.3029 31.1536 77.1349 31.8536 77.1349 32.619C77.1349 33.3656 77.3029 34.0656 77.6389 34.719C77.9935 35.3536 78.4789 35.867 79.0949 36.259C79.7109 36.6323 80.4109 36.819 81.1949 36.819C81.8855 36.819 82.4829 36.6696 82.9869 36.371C83.4909 36.0723 83.9482 35.643 84.3589 35.083L87.1029 37.463C85.6469 39.3296 83.5655 40.263 80.8589 40.263ZM94.8648 40.263C93.3901 40.263 92.0648 39.927 90.8888 39.255C89.7128 38.5643 88.7888 37.6403 88.1168 36.483C87.4448 35.307 87.1088 34.0283 87.1088 32.647C87.1088 31.2656 87.4448 29.987 88.1168 28.811C88.7888 27.635 89.7128 26.711 90.8888 26.039C92.0648 25.3483 93.3901 25.003 94.8648 25.003C96.3394 25.003 97.6648 25.3483 98.8408 26.039C100.017 26.711 100.941 27.635 101.613 28.811C102.285 29.987 102.621 31.2656 102.621 32.647C102.621 34.0283 102.285 35.307 101.613 36.483C100.941 37.6403 100.017 38.5643 98.8408 39.255C97.6648 39.927 96.3394 40.263 94.8648 40.263ZM90.8888 32.647C90.8888 33.4123 91.0474 34.1123 91.3648 34.747C91.7008 35.3816 92.1674 35.8856 92.7648 36.259C93.3808 36.6323 94.0808 36.819 94.8648 36.819C95.6488 36.819 96.3394 36.6323 96.9368 36.259C97.5528 35.8856 98.0194 35.3816 98.3368 34.747C98.6728 34.1123 98.8408 33.4123 98.8408 32.647C98.8408 31.8816 98.6728 31.1816 98.3368 30.547C98.0008 29.9123 97.5341 29.4083 96.9368 29.035C96.3394 28.643 95.6488 28.447 94.8648 28.447C94.0808 28.447 93.3901 28.643 92.7928 29.035C92.1954 29.4083 91.7288 29.9123 91.3928 30.547C91.0568 31.1816 90.8888 31.8816 90.8888 32.647ZM104.574 20.299H116.082V23.827H108.494V28.419H115.942V31.891H108.494V39.899H104.574V20.299ZM124.82 40.263C123.514 40.263 122.31 39.927 121.208 39.255C120.107 38.5643 119.23 37.6403 118.576 36.483C117.942 35.3256 117.624 34.0563 117.624 32.675C117.624 31.2936 117.942 30.0243 118.576 28.867C119.23 27.691 120.107 26.7576 121.208 26.067C122.31 25.3763 123.514 25.031 124.82 25.031C126.015 25.031 126.976 25.255 127.704 25.703C128.451 26.151 129.03 26.795 129.44 27.635V25.339H133.192V39.899H129.524V37.519C129.095 38.3963 128.507 39.0776 127.76 39.563C127.032 40.0296 126.052 40.263 124.82 40.263ZM121.404 32.647C121.404 33.3936 121.572 34.0936 121.908 34.747C122.263 35.3816 122.739 35.895 123.336 36.287C123.952 36.6603 124.652 36.847 125.436 36.847C126.239 36.847 126.948 36.6603 127.564 36.287C128.199 35.9136 128.684 35.4096 129.02 34.775C129.356 34.1403 129.524 33.4403 129.524 32.675C129.524 31.9096 129.356 31.2096 129.02 30.575C128.684 29.9216 128.199 29.4083 127.564 29.035C126.948 28.643 126.239 28.447 125.436 28.447C124.652 28.447 123.952 28.643 123.336 29.035C122.72 29.4083 122.244 29.9123 121.908 30.547C121.572 31.1816 121.404 31.8816 121.404 32.647ZM135.438 25.339H139.106V28.111C139.368 27.047 139.872 26.2443 140.618 25.703C141.384 25.1616 142.382 24.9283 143.614 25.003V28.559H143.082C141.962 28.559 141.038 28.9136 140.31 29.623C139.582 30.3136 139.218 31.2563 139.218 32.451V39.899H135.438V25.339ZM144.872 25.339H148.596V27.467C149.361 25.8243 150.845 25.003 153.048 25.003C154.075 25.003 154.999 25.2456 155.82 25.731C156.66 26.1976 157.313 26.8696 157.78 27.747C158.284 26.8323 158.919 26.151 159.684 25.703C160.468 25.2363 161.476 25.003 162.708 25.003C163.753 25.003 164.696 25.255 165.536 25.759C166.376 26.2443 167.039 26.9443 167.524 27.859C168.009 28.755 168.252 29.8003 168.252 30.995V39.899H164.472V31.919C164.472 30.7056 164.211 29.8003 163.688 29.203C163.165 28.6056 162.456 28.307 161.56 28.307C160.608 28.307 159.871 28.5776 159.348 29.119C158.844 29.6603 158.592 30.5936 158.592 31.919V39.899H154.812V31.919C154.812 30.7056 154.532 29.8003 153.972 29.203C153.412 28.6056 152.647 28.307 151.676 28.307C150.817 28.307 150.099 28.615 149.52 29.231C148.941 29.8283 148.652 30.7243 148.652 31.919V39.899H144.872V25.339Z" fill="#282828" fill-opacity="0.9"/>
<defs>
<clipPath id="clip0_11_26">
<rect width="42" height="43.6154" fill="white" transform="translate(3.85425 12.8095) rotate(-13.5715)"/>
</clipPath>
</defs>
</svg>
