<svg width="150" height="38" viewBox="0 0 150 38" fill="none" xmlns="http://www.w3.org/2000/svg">
<path d="M26.0933 3.90028C36.4825 -14.3697 -27.3402 47.4774 14.2131 36.0892C55.7701 24.701 24.5843 -2.65216 30.0521 11.0559C39.0771 33.6732 5.06149 40.8805 26.0933 3.90028Z" fill="#86C364"/>
<path d="M54.8244 29.1544C53.392 29.1544 52.1557 28.8492 51.1156 28.239C50.0754 27.62 49.2739 26.7483 48.7112 25.6237C48.157 24.4991 47.8799 23.174 47.8799 21.6484C47.8799 20.1402 48.157 18.8195 48.7112 17.6861C49.2654 16.5441 50.0455 15.6549 51.0516 15.0185C52.0577 14.3821 53.2428 14.0639 54.607 14.0639C55.4851 14.0639 56.3164 14.2078 57.1008 14.4954C57.8937 14.7831 58.5928 15.2277 59.1982 15.8293C59.8121 16.4308 60.2938 17.1979 60.6434 18.1307C60.9929 19.0548 61.1677 20.1576 61.1677 21.4391V22.5114H49.453V20.1969H59.4923L57.9193 20.8768C57.9193 20.0487 57.7957 19.3294 57.5484 18.7192C57.3012 18.1002 56.9345 17.6164 56.4486 17.2677C55.9626 16.919 55.3572 16.7446 54.6325 16.7446C53.9078 16.7446 53.2897 16.919 52.7781 17.2677C52.2666 17.6164 51.8786 18.0872 51.6143 18.68C51.35 19.2641 51.2179 19.9179 51.2179 20.6415V22.2499C51.2179 23.1391 51.3671 23.9019 51.6655 24.5383C51.9724 25.166 52.3987 25.6455 52.9444 25.9767C53.4986 26.308 54.1423 26.4736 54.8755 26.4736C55.353 26.4736 55.7878 26.4039 56.18 26.2644C56.5807 26.1249 56.9218 25.9157 57.2031 25.6367C57.493 25.3491 57.7147 24.996 57.8681 24.5775L61.0142 24.9568C60.8096 25.8024 60.4302 26.5434 59.876 27.1798C59.3304 27.8075 58.627 28.2957 57.7658 28.6444C56.9132 28.9844 55.9327 29.1544 54.8244 29.1544Z" fill="#003B3E"/>
<path d="M69.2248 29.1544C67.8009 29.1544 66.5774 28.8362 65.5543 28.1998C64.5312 27.5546 63.7468 26.6654 63.2011 25.5321C62.6555 24.3988 62.3827 23.0955 62.3827 21.6222C62.3827 20.1315 62.6598 18.8195 63.2139 17.6861C63.7681 16.5528 64.5568 15.668 65.5799 15.0316C66.603 14.3865 67.8094 14.0639 69.1992 14.0639C70.3672 14.0639 71.3989 14.2819 72.2941 14.7177C73.1893 15.1536 73.9013 15.7682 74.4299 16.5616C74.967 17.3461 75.2739 18.2659 75.3507 19.3207H72.1279C72.0426 18.85 71.8763 18.4272 71.6291 18.0523C71.3818 17.6774 71.0578 17.381 70.6571 17.1631C70.2649 16.9451 69.796 16.8362 69.2503 16.8362C68.5597 16.8362 67.9544 17.028 67.4343 17.4115C66.9227 17.7864 66.522 18.3269 66.2321 19.033C65.9423 19.7392 65.7973 20.5848 65.7973 21.5699C65.7973 22.5637 65.938 23.4224 66.2194 24.146C66.5007 24.8609 66.9014 25.4144 67.4215 25.8067C67.9416 26.1903 68.5512 26.3821 69.2503 26.3821C69.9921 26.3821 70.6188 26.1598 71.1303 25.7152C71.6504 25.2706 71.9829 24.656 72.1279 23.8714H75.3507C75.2739 24.9088 74.9755 25.8242 74.4555 26.6175C73.9354 27.4108 73.232 28.0341 72.3453 28.4874C71.4586 28.9321 70.4184 29.1544 69.2248 29.1544Z" fill="#003B3E"/>
<path d="M83.395 29.1544C81.9967 29.1544 80.786 28.8405 79.7629 28.2128C78.7398 27.5852 77.9468 26.7047 77.3841 25.5714C76.8299 24.438 76.5528 23.1217 76.5528 21.6222C76.5528 20.114 76.8299 18.7933 77.3841 17.66C77.9468 16.518 78.7398 15.6331 79.7629 15.0054C80.786 14.3778 81.9967 14.0639 83.395 14.0639C84.7932 14.0639 86.0039 14.3778 87.027 15.0054C88.0501 15.6331 88.8431 16.518 89.4058 17.66C89.9685 18.7933 90.2499 20.114 90.2499 21.6222C90.2499 23.1217 89.9685 24.438 89.4058 25.5714C88.8431 26.7047 88.0501 27.5852 87.027 28.2128C86.0039 28.8405 84.7932 29.1544 83.395 29.1544ZM83.395 26.3821C84.1708 26.3821 84.8103 26.1729 85.3133 25.7544C85.8163 25.3273 86.1915 24.7519 86.4387 24.0283C86.6945 23.3047 86.8224 22.5027 86.8224 21.6222C86.8224 20.7243 86.6945 19.9135 86.4387 19.19C86.1915 18.4664 85.8163 17.8954 85.3133 17.4769C84.8103 17.0497 84.1708 16.8362 83.395 16.8362C82.6361 16.8362 82.001 17.0497 81.4894 17.4769C80.9778 17.8954 80.5942 18.4664 80.3384 19.19C80.0911 19.9135 79.9675 20.7243 79.9675 21.6222C79.9675 22.5027 80.0911 23.3047 80.3384 24.0283C80.5942 24.7519 80.9778 25.3273 81.4894 25.7544C82.001 26.1729 82.6361 26.3821 83.395 26.3821Z" fill="#003B3E"/>
<path d="M92.2449 28.8667V9.38248H104.471V12.3378H95.698V18.1831H103.614V21.0991H95.698V28.8667H92.2449Z" fill="#003B3E"/>
<path d="M110.469 29.1674C109.557 29.1674 108.738 29.0018 108.014 28.6705C107.289 28.3305 106.718 27.8336 106.3 27.1798C105.882 26.5259 105.673 25.7196 105.673 24.7606C105.673 23.9411 105.823 23.2611 106.121 22.7206C106.419 22.1801 106.824 21.7486 107.336 21.4261C107.856 21.1035 108.44 20.8594 109.088 20.6938C109.736 20.5194 110.405 20.3974 111.096 20.3276C111.94 20.2317 112.622 20.1489 113.142 20.0792C113.662 20.0094 114.037 19.8961 114.268 19.7392C114.506 19.5823 114.626 19.3382 114.626 19.0069V18.9415C114.626 18.2354 114.421 17.6861 114.012 17.2938C113.603 16.9015 113.006 16.7054 112.221 16.7054C111.394 16.7054 110.738 16.8885 110.252 17.2546C109.774 17.6208 109.45 18.0523 109.28 18.5492L106.147 18.0915C106.394 17.2023 106.803 16.4613 107.374 15.8685C107.946 15.267 108.64 14.818 109.459 14.5216C110.286 14.2165 111.198 14.0639 112.196 14.0639C112.878 14.0639 113.56 14.1467 114.242 14.3124C114.924 14.4693 115.551 14.7395 116.122 15.1231C116.693 15.5067 117.149 16.0211 117.49 16.6662C117.831 17.3113 118.002 18.1177 118.002 19.0853V28.8667H114.766V26.8529H114.664C114.459 27.2539 114.17 27.6331 113.794 27.9905C113.428 28.3392 112.967 28.6226 112.413 28.8405C111.868 29.0585 111.22 29.1674 110.469 29.1674ZM111.326 26.6306C112.008 26.6306 112.596 26.4954 113.091 26.2252C113.585 25.9462 113.969 25.5801 114.242 25.1267C114.515 24.6647 114.651 24.1634 114.651 23.6229V21.9099C114.54 21.9971 114.361 22.0799 114.114 22.1584C113.867 22.2281 113.585 22.2935 113.27 22.3545C112.955 22.4155 112.643 22.4678 112.336 22.5114C112.038 22.555 111.778 22.5899 111.556 22.616C111.053 22.6858 110.601 22.8035 110.201 22.9691C109.808 23.126 109.497 23.344 109.267 23.6229C109.037 23.9019 108.922 24.2637 108.922 24.7083C108.922 25.3447 109.148 25.8242 109.6 26.1467C110.051 26.4693 110.627 26.6306 111.326 26.6306Z" fill="#003B3E"/>
<path d="M120.496 28.8667V14.247H123.757V16.7054H123.91C124.166 15.8511 124.614 15.1972 125.253 14.7439C125.893 14.2819 126.622 14.0508 127.44 14.0508C127.619 14.0508 127.824 14.0596 128.054 14.077C128.293 14.0944 128.489 14.1162 128.642 14.1424V17.3069C128.497 17.2546 128.272 17.211 127.965 17.1762C127.658 17.1413 127.363 17.1238 127.082 17.1238C126.46 17.1238 125.906 17.259 125.42 17.5292C124.934 17.7995 124.55 18.17 124.269 18.6407C123.996 19.1115 123.859 19.6607 123.859 20.2884V28.8667H120.496Z" fill="#003B3E"/>
<path d="M129.909 28.8667V14.247H133.119V16.7446H133.298C133.596 15.9077 134.09 15.2539 134.781 14.7831C135.472 14.3037 136.29 14.0639 137.237 14.0639C138.209 14.0639 139.027 14.3037 139.692 14.7831C140.357 15.2626 140.822 15.9164 141.086 16.7446H141.24C141.564 15.9339 142.101 15.2844 142.851 14.7962C143.601 14.308 144.496 14.0639 145.537 14.0639C146.85 14.0639 147.92 14.4911 148.747 15.3454C149.582 16.191 150 17.429 150 19.0592V28.8667H146.624V19.5823C146.624 18.6843 146.385 18.0261 145.908 17.6077C145.439 17.1805 144.863 16.9669 144.181 16.9669C143.371 16.9669 142.74 17.2285 142.288 17.7515C141.836 18.2659 141.61 18.9284 141.61 19.7392V28.8667H138.285V19.4515C138.285 18.693 138.068 18.0915 137.633 17.6469C137.198 17.1936 136.623 16.9669 135.907 16.9669C135.421 16.9669 134.977 17.0933 134.576 17.3461C134.176 17.599 133.856 17.952 133.617 18.4054C133.387 18.8587 133.272 19.3817 133.272 19.9746V28.8667H129.909Z" fill="#003B3E"/>
</svg>
