<svg width="25" height="25" viewBox="0 0 25 25" fill="none" xmlns="http://www.w3.org/2000/svg">
<rect width="25" height="25" fill="white"/>
<path d="M15.5676 1.30212C14.1436 1.30212 12.9947 1.30212 12.0915 1.424C11.154 1.549 10.3645 1.81983 9.73738 2.44587C9.19155 2.99275 8.91446 3.66462 8.76967 4.45421C8.62905 5.22192 8.60196 6.16046 8.59571 7.28754C8.59461 7.49474 8.67586 7.69389 8.82159 7.84119C8.96732 7.98848 9.1656 8.07185 9.3728 8.07296C9.58 8.07406 9.77915 7.99281 9.92645 7.84708C10.0737 7.70135 10.1571 7.50307 10.1582 7.29587C10.1645 6.15733 10.1936 5.35004 10.3061 4.7365C10.4155 4.14692 10.5895 3.80421 10.8426 3.55108C11.1311 3.26254 11.5363 3.07504 12.3009 2.97192C13.0874 2.86671 14.1301 2.86462 15.6249 2.86462H16.6665C18.1624 2.86462 19.2051 2.86671 19.9915 2.97192C20.7561 3.07504 21.1603 3.26358 21.4499 3.55108C21.7374 3.83962 21.9249 4.24379 22.028 5.00942C22.1343 5.79483 22.1353 6.83858 22.1353 8.33337V16.6667C22.1353 18.1615 22.1343 19.2042 22.028 19.9917C21.9249 20.7563 21.7374 21.1605 21.4488 21.449C21.1603 21.7375 20.7561 21.925 19.9915 22.0282C19.2051 22.1334 18.1624 22.1355 16.6665 22.1355H15.6249C14.1301 22.1355 13.0874 22.1334 12.2999 22.0282C11.5363 21.925 11.1311 21.7365 10.8426 21.449C10.5895 21.1948 10.4155 20.8532 10.3061 20.2636C10.1936 19.65 10.1645 18.8427 10.1582 17.7042C10.1577 17.6016 10.1369 17.5001 10.0972 17.4056C10.0574 17.311 9.99938 17.2252 9.92645 17.153C9.85351 17.0808 9.76708 17.0238 9.67209 16.985C9.57709 16.9462 9.47539 16.9266 9.3728 16.9271C9.2702 16.9277 9.16872 16.9484 9.07414 16.9882C8.97957 17.028 8.89375 17.086 8.82159 17.1589C8.74943 17.2318 8.69235 17.3183 8.65359 17.4133C8.61483 17.5082 8.59517 17.6099 8.59571 17.7125C8.60196 18.8396 8.62905 19.7782 8.76967 20.5459C8.91551 21.3355 9.19155 22.0073 9.73842 22.5542C10.3645 23.1813 11.1551 23.45 12.0926 23.5771C12.9947 23.698 14.1436 23.698 15.5676 23.698H16.7238C18.1488 23.698 19.2968 23.698 20.1999 23.5771C21.1374 23.45 21.927 23.1813 22.554 22.5542C23.1811 21.9271 23.4499 21.1375 23.577 20.2C23.6978 19.2969 23.6978 18.148 23.6978 16.724V8.27608C23.6978 6.85212 23.6978 5.70317 23.577 4.80004C23.4509 3.86254 23.1811 3.07296 22.554 2.44587C21.927 1.81879 21.1374 1.55004 20.1999 1.424C19.2968 1.30212 18.1478 1.30212 16.7238 1.30212H15.5676Z" fill="#08031B"/>
<path d="M15.625 11.7188C15.8322 11.7188 16.0309 11.8011 16.1774 11.9476C16.324 12.0941 16.4063 12.2928 16.4063 12.5C16.4063 12.7072 16.324 12.9059 16.1774 13.0524C16.0309 13.199 15.8322 13.2813 15.625 13.2813H4.1948L6.23751 15.0313C6.39498 15.1661 6.49245 15.3579 6.50847 15.5646C6.52449 15.7713 6.45775 15.9759 6.32293 16.1333C6.18811 16.2908 5.99626 16.3883 5.78958 16.4043C5.5829 16.4203 5.37832 16.3536 5.22084 16.2188L1.57501 13.0938C1.48925 13.0204 1.42039 12.9294 1.37317 12.8269C1.32596 12.7244 1.30151 12.6129 1.30151 12.5C1.30151 12.3872 1.32596 12.2757 1.37317 12.1732C1.42039 12.0707 1.48925 11.9796 1.57501 11.9063L5.22084 8.78126C5.29882 8.71451 5.38917 8.66376 5.48676 8.63193C5.58434 8.60009 5.68724 8.58779 5.78958 8.59572C5.89191 8.60365 5.99169 8.63166 6.0832 8.67816C6.17471 8.72465 6.25617 8.78871 6.32293 8.86668C6.38968 8.94465 6.44043 9.03501 6.47226 9.13259C6.5041 9.23018 6.5164 9.33307 6.50847 9.43541C6.50054 9.53775 6.47253 9.63752 6.42603 9.72903C6.37954 9.82055 6.31548 9.90201 6.23751 9.96876L4.19584 11.7188H15.625Z" fill="#08031B"/>
</svg>
